STARTFONT 2.3
FONT -FontForge-Satisfy-Book-R-Normal--36-360-72-72-P-156-ISO10646-1
SIZE 36 72 72  4
FONTBOUNDINGBOX 42 52 -8 -18
COMMENT "Generated by fontforge, http://fontforge.sourceforge.net"
COMMENT "Copyright (c) 2011 by Font Diner, Inc. All rights reserved."
STARTPROPERTIES 40
FOUNDRY "FontForge"
FAMILY_NAME "Satisfy"
WEIGHT_NAME "Book"
SLANT "R"
SETWIDTH_NAME "Normal"
ADD_STYLE_NAME ""
PIXEL_SIZE 36
POINT_SIZE 360
RESOLUTION_X 72
RESOLUTION_Y 72
SPACING "P"
AVERAGE_WIDTH 156
CHARSET_REGISTRY "ISO10646"
CHARSET_ENCODING "1"
FONTNAME_REGISTRY ""
CHARSET_COLLECTIONS "ISO10646-1"
BITS_PER_PIXEL 4
FONT_NAME "Satisfy-Regular"
FACE_NAME "Satisfy Regular"
COPYRIGHT "Copyright (c) 2011 by Font Diner, Inc. All rights reserved."
FONT_VERSION "1.001"
FONT_ASCENT 29
FONT_DESCENT 7
UNDERLINE_POSITION -4
UNDERLINE_THICKNESS 2
X_HEIGHT 14
CAP_HEIGHT 26
RAW_ASCENT 799
RAW_DESCENT 200
NORM_SPACE 10
RELATIVE_WEIGHT 40
RELATIVE_SETWIDTH 50
SUPERSCRIPT_X 0
SUPERSCRIPT_Y 17
SUPERSCRIPT_SIZE 23
SUBSCRIPT_X 0
SUBSCRIPT_Y 5
SUBSCRIPT_SIZE 23
AVG_LOWERCASE_WIDTH 148
AVG_UPPERCASE_WIDTH 203
ENDPROPERTIES
CHARS 227
STARTCHAR space
ENCODING 32
SWIDTH 280 0
DWIDTH 10 0
BBX 1 1 0 0
BITMAP
00
ENDCHAR
STARTCHAR exclam
ENCODING 33
SWIDTH 249 0
DWIDTH 9 0
BBX 11 28 -1 -1
BITMAP
000000015730
0000003EFF80
0000006FFF30
0000009FFE00
000000DFFA00
000001FFF600
000004FFF200
000008FFD000
00000BFF9000
00000EFF5000
00003FFF1000
00007FFC0000
0000AFF80000
0000DFF40000
0002FFE00000
0005FFB00000
0008FF700000
000CFF300000
000FFE000000
003FFA000000
007FF5000000
00AF80000000
003100000000
000000000000
028A70000000
3EFFF1000000
AFFF90000000
4CB600000000
ENDCHAR
STARTCHAR quotedbl
ENCODING 34
SWIDTH 249 0
DWIDTH 9 0
BBX 11 12 1 15
BITMAP
000155001540
003EF803EF70
009FF40AFF20
00DFE00DFD00
01FFA02FF900
05FF606FF500
08FF209FF100
0CFD00DFB000
1FF902FF7000
4FF505FF4000
7FE109FE0000
131001310000
ENDCHAR
STARTCHAR numbersign
ENCODING 35
SWIDTH 417 0
DWIDTH 15 0
BBX 17 19 -1 4
BITMAP
000000005820037500
00000006FE001EF400
0000000BF9006FE000
0000001FF400BF9000
0000005FD001FF4000
001689DFEBBCFFA980
00BFFFFFFFFFFFFFD0
02FECDFE888FF98830
001009F9004FD00000
00000EF4009F800000
00005FE000EF400000
06ABEFFEEEFFDCB500
5FFFFFFFFFFFFFF500
ACACFF656FF8554000
000AFB005FF1000000
001EF700AFC0000000
005FF301EF80000000
00AFE005FF40000000
00BC6007D910000000
ENDCHAR
STARTCHAR dollar
ENCODING 36
SWIDTH 292 0
DWIDTH 11 0
BBX 14 28 -2 -1
BITMAP
00000000001000
0000000004F600
0000000009F300
000000004DF400
0000005EFFFF90
000009FF714FF4
00005FF5000AF9
0000CFB00009FC
0000FF70000BFB
0000FF80001EF7
0000DFB0008FB0
00009FF2003300
00005FF8000000
00000DFE100000
000007FF700000
000001EFE00000
0000007FF60000
0000000DFC0000
02B50007FF1000
1DF20003FF4000
4FF20003FF4000
2FF40007FE0000
0BFC104FF60000
02CFECFF700000
0006FF72000000
0005FB00000000
0009F600000000
00034000000000
ENDCHAR
STARTCHAR percent
ENCODING 37
SWIDTH 574 0
DWIDTH 21 0
BBX 21 28 0 -1
BITMAP
0000000100000000000460
00003BFFA100000004EF70
0004EFEDFC0000002EFB00
001EFB10DF500000CFE100
009FD1009F900007FF4000
01EF70008FA0003FF80000
05FF10009F9000DFC00000
07FC0000DF7008FE200000
08FA0003FF304FF5000000
08FA000AFC01DF90000000
06FD005FF509FD10000000
02FFCAFF905FF300000000
007FFFF801EF8000000000
000365100AFC0000000000
000000006FF30000000000
00000002EF7006CEB30000
0000000BFC00AFFEFE3000
0000006FF307FF508FB000
000002EF802FF7003FF100
00000CFD008FE0002FF200
00007FF400DF80003FF100
0003FF9001FF40006FE000
000CFE1002FF2000BFA000
008FF60001FF2002FF5000
03FFC00000FF500BFC0000
1DFF300000BFE8CFE30000
9FF90000003EFFFE400000
8730000000027861000000
ENDCHAR
STARTCHAR ampersand
ENCODING 38
SWIDTH 460 0
DWIDTH 17 0
BBX 18 29 -2 -2
BITMAP
0000000000005AA600
00000000002CFEFF70
0000000002DF605FB0
000000000CF7004FA0
000000005FF100BF60
00000000AFC007FE10
00000000EFB06FF500
00000002FFA6FF9000
00000003FFDFFB0000
00000004FFFFC10000
00000005FFFC100000
00000009FFD1000000
0000009FFFA0000000
000009FFFFB0000000
00008FFFFFD0000000
0006FFF7FFF0000000
004FFF62FFF2000000
01EFF900FFF4000000
09FFD100DFF7000000
2FFF4000BFFA000000
7FFB00009FFD000085
BFF600006FFF100AE2
CFF400003FFF52CD20
BFF700000EFFCED200
8FFE30000AFFFB1000
2FFFFB9ACFFFF70000
05FFFFFFFEFFFF4000
0039BCB840BFFFD100
00000000002AA60000
ENDCHAR
STARTCHAR quotesingle
ENCODING 39
SWIDTH 113 0
DWIDTH 4 0
BBX 6 12 1 15
BITMAP
000155
003EF8
009FF4
00DFE0
01FFA0
05FF60
08FF20
0CFD00
1FF900
4FF500
7FE100
131000
ENDCHAR
STARTCHAR parenleft
ENCODING 40
SWIDTH 234 0
DWIDTH 8 0
BBX 12 34 0 -4
BITMAP
000000000045
0000000008F5
000000009FE1
00000007FF40
0000003FF600
000000CFC000
000006FF3000
00000DFA0000
00005FF30000
0000CFC00000
0003FF600000
0008FF100000
000DFB000000
003FF6000000
008FF2000000
00CFD0000000
01FFA0000000
05FF70000000
08FF40000000
0BFF10000000
0EFE00000000
1FFC00000000
2FFA00000000
3FF800000000
4FF600000000
4FF600000000
3FF500000000
3FF500000000
1FF600000000
0DF700000000
0AFA00000000
05FE00000000
00DD00000000
003900000000
ENDCHAR
STARTCHAR parenright
ENCODING 41
SWIDTH 204 0
DWIDTH 7 0
BBX 11 34 -4 -4
BITMAP
000000007000
00000001F500
00000004FC00
00000001FF30
00000000CF70
00000000BFA0
00000000AFC0
000000009FD0
00000000AFE0
00000000BFE0
00000000CFD0
00000000EFC0
00000000FFB0
00000003FF90
00000005FF70
00000008FF40
0000000AFF10
0000000EFD00
0000002FF900
0000005FF500
000000AFF100
000000EFA000
000005FF5000
00000AFE1000
00001EF90000
00006FF30000
0000DFB00000
0005FF400000
000DFB000000
008FF2000000
04FF60000000
2EFA00000000
8FA000000000
B70000000000
ENDCHAR
STARTCHAR asterisk
ENCODING 42
SWIDTH 327 0
DWIDTH 12 0
BBX 13 12 1 14
BITMAP
000000CEC60000
001000EFF50000
02E600EFD00000
0AFF70EF500540
1EFFF8EC39EFA0
0159DFFFFFFFB0
00003DFE556530
0019FF9FA00000
04EFFB1FFA0000
05FFF20CFFA000
007F9007FF9000
00051001C40000
ENDCHAR
STARTCHAR plus
ENCODING 43
SWIDTH 350 0
DWIDTH 13 0
BBX 14 13 -1 6
BITMAP
00000009FD0000
0000001FFA0000
0000005FF50000
0000008FF10000
002456DFE66531
09FFFFFFFFFFF6
1FFFFFFFFFEFE2
2A7438FF200000
00000AFE000000
00000EFB000000
00003FF8000000
00005FD3000000
00000100000000
ENDCHAR
STARTCHAR comma
ENCODING 44
SWIDTH 200 0
DWIDTH 7 0
BBX 6 8 -2 -5
BITMAP
006950
0AFFF2
1FFFF3
0AFFE0
005F80
00DD10
09C200
040000
ENDCHAR
STARTCHAR hyphen
ENCODING 45
SWIDTH 353 0
DWIDTH 13 0
BBX 14 4 -1 9
BITMAP
02567888888750
1EFFFFFFFFFFF2
6FFFFEDDDCCD90
56320000000000
ENDCHAR
STARTCHAR period
ENCODING 46
SWIDTH 213 0
DWIDTH 8 0
BBX 6 4 -2 -1
BITMAP
0049A4
09FFFA
1FFFF4
08CA30
ENDCHAR
STARTCHAR slash
ENCODING 47
SWIDTH 262 0
DWIDTH 9 0
BBX 18 28 -4 -1
BITMAP
000000000000000046
000000000000004EF8
00000000000000DFD1
00000000000007FF40
0000000000001EFA00
0000000000009FE200
000000000002FF7000
00000000000BFD0000
00000000004FF50000
0000000000CFB00000
0000000006FF200000
000000001DF8000000
000000007FE1000000
00000001EF70000000
00000009FD00000000
0000003FF500000000
000000BFC000000000
000004FF5000000000
00000CFC0000000000
00006FF40000000000
0001EFC00000000000
0008FF400000000000
002EFC000000000000
009FF5000000000000
03FFC0000000000000
0BFF50000000000000
4FFD00000000000000
485100000000000000
ENDCHAR
STARTCHAR zero
ENCODING 48
SWIDTH 489 0
DWIDTH 18 0
BBX 16 28 1 -1
BITMAP
0000000015750000
00000006EFFFB000
0000009FFDCFF800
000008FFB107FF10
00005FFC0001EF70
0001EFF20000CFB0
0009FF8000009FD0
002FFE1000009FF0
009FF90000008FF1
01EFF30000009FF2
06FFC0000000AFF2
0BFF80000000BFF1
1FFF40000000DFE0
4FFE00000001FFC0
8FFC00000004FFA0
AFF900000008FF70
CFF70000000CFF40
DFF60000002FFE00
DFF50000006FFA00
DFF4000000CFF500
CFF4000003FFD000
AFF500000BFF6000
7FF700004FFD0000
3FFB0001DFF40000
0DFF200AFF700000
06FFC6BFF9000000
00BFFFFE60000000
0007CB7100000000
ENDCHAR
STARTCHAR one
ENCODING 49
SWIDTH 272 0
DWIDTH 10 0
BBX 10 28 0 -1
BITMAP
0000000200
0000009FB0
00001BFFF3
0000BFFFE0
0003EFFFB0
00003EFF70
00000CFF30
00000FFE00
00003FFB00
00006FF700
00009FF300
0000CFE000
0000EFB000
0003FF7000
0006FF4000
000AFE0000
000DFB0000
002FF70000
006FF40000
00AFE00000
00EFB00000
04FF800000
08FF500000
0DFF300000
2FFF200000
6FFF200000
5FFF400000
0786100000
ENDCHAR
STARTCHAR two
ENCODING 50
SWIDTH 448 0
DWIDTH 16 0
BBX 17 28 -1 -1
BITMAP
000000000046762000
000000018EFFFFF600
0000003EFA118FFE10
000004FFA0000DFF60
00001EFE20000AFF80
00009FF800000BFF80
0000EFF400000CFF70
0001FFF300000FFF40
00008FE500004FFE00
0000000000009FF800
000000000001FFF200
000000000009FF8000
00000000003FFD1000
0000000000CFF30000
0000000009FF600000
000000008FF8000000
00000008FFA0000000
0000009FFB00000000
00001AFFA000000000
0001CFFA0000000000
001CFF900000000000
01CFF7000000000000
0BFF60000000000000
6FFA01356653000000
EFF8BFFFFFFFE30000
AFFFFFFFFFFFF50000
5FFFEBAABCFFF30000
09A200000004900000
ENDCHAR
STARTCHAR three
ENCODING 51
SWIDTH 462 0
DWIDTH 17 0
BBX 17 28 -1 -1
BITMAP
000000000467740000
00000018EFFFFFD300
000002DFFE979FFE20
00001DFFB20006FF90
00009FFD100001FFD0
0001FFF5000002FFE0
0003FFF2000004FFD0
0002FFF4000008FF90
0000BFFC10001EFF30
0000044000009FFA00
000000000005FFD100
00000000005FFE3000
0000000007FFE40000
00000003CFFC200000
000000AFFFE9500000
0000009FDACFFA0000
000000230008FF6000
000000000002FFB000
000000000001FFC000
000000000002FFB000
000000000006FF8000
01584000000BFF4000
1DFF6000003FFD0000
2FFF700000BFF50000
0EFFD10009FFA00000
07FFFD87CFFB000000
009FFFFFFF90000000
0004ADDC9300000000
ENDCHAR
STARTCHAR four
ENCODING 52
SWIDTH 452 0
DWIDTH 16 0
BBX 16 28 0 -1
BITMAP
0000000000000130
000000000027CFF5
0000000001DFFFF2
0000000009FFEFE0
000000005FFBAFA0
00000003EFC1EF60
0000002EFE22FF20
000001CFF406FE00
00000BFF600AFA00
00009FF8000EF700
0008FFA0003FF300
006FFC10007FF000
06FFD10000BFC000
6FFE300000EF9000
EFF9688ACEFFFC20
CFFFFFFFFFFFFF60
5FFFEBA98EFFEF30
065100001FFD1800
000000004FFB0000
000000008FF80000
00000000CFF60000
00000001FFF40000
00000004FFF20000
00000008FFF10000
0000000BFFE00000
0000000DFFE00000
0000000DFFD00000
00000005A8100000
ENDCHAR
STARTCHAR five
ENCODING 53
SWIDTH 444 0
DWIDTH 16 0
BBX 17 28 0 -1
BITMAP
000000000001221000
00000158BDFFFFFD40
000008FFFFFFFFFFA0
00000BFFDDEFFFFF80
00001FF4000038FF30
00005FD00000003600
0000AF900000000000
0000EF400000000000
0004FE000000000000
0009FA000000000000
000EF6001430000000
004FF23AFFFE400000
009FD6FFFFFFE10000
00DFEFFD78EFF60000
00FFFF90005FF90000
00BFF900000EF90000
00154000000EF80000
00000000000EF50000
00000000002FF20000
00000000005FD00000
01A4000000BF700000
2DF4000003FE100000
BFF700001CF8000000
FFFE2002CFD1000000
EFFFEABFFE30000000
7FFFFFFFF400000000
0AFFFFFD3000000000
006CEC710000000000
ENDCHAR
STARTCHAR six
ENCODING 54
SWIDTH 477 0
DWIDTH 17 0
BBX 15 28 1 -1
BITMAP
0000000001465100
000000007EFFFC00
0000000AFF9AFF50
000000BFE403FF80
000008FF5004FF80
00004FF90008FF60
0001DFE1001EFD10
0008FF7000286100
001EFE1000000000
007FF80000000000
00DFF206CEC60000
04FFC2DFFFFF8000
09FF9DFD309FF300
0EFFEFE2002FF800
3FFFFF80000EFB00
6FFFFF10000EFD00
9FFBC900000FFC00
AFF91100003FFB00
BFF80000006FF900
AFF7000000AFF500
9FF7000001EFE100
8FF8000006FF9000
5FFA00000DFF2000
1FFE00007FF80000
0BFF5003FFC00000
03FFD56EFD200000
007FFFFFC1000000
0005BDB600000000
ENDCHAR
STARTCHAR seven
ENCODING 55
SWIDTH 406 0
DWIDTH 15 0
BBX 15 28 1 -1
BITMAP
0000000012332100
0019CDEFFFFFFF90
00BFFFFFFFFFFFF0
00FFFFDA8667AFF0
01FE82000000CFB0
008100000008FF30
00000000004FF600
0000000001EFB000
000000000AFF2000
000000006FF70000
00000002EFD00000
0000000AFF500000
0000004FFB000000
000001DFF3000000
000007FFA0000000
00001EFF30000000
00008FFA00000000
0002FFF300000000
0009FFB000000000
001FFF4000000000
008FFD0000000000
00EFF80000000000
05FFF20000000000
0AFFD00000000000
0EFFA00000000000
2FFF800000000000
2FFF900000000000
0464100000000000
ENDCHAR
STARTCHAR eight
ENCODING 56
SWIDTH 444 0
DWIDTH 16 0
BBX 17 28 -1 -1
BITMAP
000000000035751000
000000003CFFDFE600
00000005FF6102DF30
0000003FF600006FA0
000000BFC000004FC0
000003FF8000008FA0
000007FF700002EF60
00000AFF70000BFE10
00000AFFA000AFF600
000008FFE10AFF9000
000004FFF8BFFA0000
000000DFFFFF900000
0000004FFFF7000000
0000008FFFF4000000
00001AFFEFFD000000
0000BFF65FFF500000
000AFF600BFFC00000
008FF90004FFF20000
02FFD00000EFF60000
0AFF400000BFF80000
1EFC000000AFF90000
4FF7000000AFF80000
5FF5000000CFF40000
5FF5000003FFD00000
2FF800001CFF400000
0BFE3004CFF7000000
02DFFDEFFE60000000
0016ACDB7200000000
ENDCHAR
STARTCHAR nine
ENCODING 57
SWIDTH 462 0
DWIDTH 17 0
BBX 16 28 0 -1
BITMAP
0000000003663000
00000005DFFFF700
0000008FFC55EF40
000008FFA0007FB0
00004FFB00002FF1
0000CFF200000FF5
0005FF8000000EF7
000CFF2000000EF8
002FFA0000000FF9
006FF6000001AFF8
00AFF3000007FFF7
00CFF100000BFFF6
00CFE000002FFFF4
00CFF000009FEFF1
00BFF10002EFAFD0
008FF6000BF8CF90
003FFE53AFB3FF50
000AFFFFFB19FE10
00019EFC601EFA00
00000000008FF400
0000000002FFC000
028000000BFF4000
0BD000008FFA0000
2FF50007FFE10000
4FFE76BFFF400000
2FFFFFFFE4000000
06FFFFFC30000000
004BCA4000000000
ENDCHAR
STARTCHAR colon
ENCODING 58
SWIDTH 226 0
DWIDTH 8 0
BBX 8 11 -2 -1
BITMAP
0004DFE5
001EFFF8
002FFFC1
00036400
00000000
00000000
00000000
0049A400
09FFFA00
1FFFF400
08CA3000
ENDCHAR
STARTCHAR semicolon
ENCODING 59
SWIDTH 212 0
DWIDTH 8 0
BBX 8 16 -2 -5
BITMAP
00000100
0009EFB0
007FFFF1
009FFF60
00156200
00000000
00000000
00000000
00695000
0AFFF200
1FFFF300
0AFFE000
005F8000
00DD1000
09C20000
04000000
ENDCHAR
STARTCHAR less
ENCODING 60
SWIDTH 271 0
DWIDTH 10 0
BBX 12 15 -1 4
BITMAP
000000004796
0000001AFFC1
000002CFFA00
00003EFF8000
0005FFF70000
007FFF500000
0AFFF5000000
3FFF40000000
0BFF60000000
03FFE1000000
00AFF8000000
002FFF200000
0008FFB00000
0001DFF50000
00004DD90000
ENDCHAR
STARTCHAR equal
ENCODING 61
SWIDTH 374 0
DWIDTH 13 0
BBX 15 8 -1 8
BITMAP
00069BCDDDDDCA20
005FFFFFFFFFFF20
00AFDBA998888600
0031000000000000
0024678888763000
07FFFFFFFFFFC000
1EFFFFEEDDDD5000
2853100000000000
ENDCHAR
STARTCHAR greater
ENCODING 62
SWIDTH 250 0
DWIDTH 9 0
BBX 12 15 -3 4
BITMAP
000029960000
00001DFF4000
000005FFD000
000000CFF700
0000003FFE10
00000009FF90
00000001EFF2
00000000AFFA
00000008FFF7
0000009FFE50
00001AFFD300
0001CFFC2000
002DFFA10000
03EFF8000000
2CC940000000
ENDCHAR
STARTCHAR question
ENCODING 63
SWIDTH 413 0
DWIDTH 15 0
BBX 18 28 -1 -1
BITMAP
00000000379A851000
0000007DFFFFFFF800
00003DFFFA77AFFFA0
0002EFFB200002EFF5
000AFFD10000007FF9
000DFF600000006FF9
000CFF600000008FF7
0003CE80000000CFF4
00000000000004FFE0
0000000000000BFF60
0000000000006FFC00
000000000005FFE200
00000000007FFE3000
000000038DFFC20000
00002AEFFFE7000000
0000DFFFC710000000
0003FFE10000000000
0006FFB00000000000
000AFF700000000000
000EFF400000000000
003FFE000000000000
007FF5000000000000
008B40000000000000
000000000000000000
016860000000000000
1DFFF7000000000000
7FFFF5000000000000
3DFD60000000000000
ENDCHAR
STARTCHAR at
ENCODING 64
SWIDTH 648 0
DWIDTH 23 0
BBX 24 25 -1 -1
BITMAP
000000000000001100000000
00000000028BEFFFD9300000
00000003BFFEA878BFF80000
0000008FFD50000002BFB000
00001CFF70000000000AFA00
0001CFE5000027960001DF40
000BFF400019FFFF59306FC0
007FF60003DFD6CFBFB01FF2
02EFB0003EF900BFFFC00CF6
09FF3001DF9002FFFF600AF9
1FFA000AFC000ADCFE0009FA
6FF4005FF200000CF80009FB
AFE000DF9000002FF2000AFA
CFC004FF3000008FB0000DF8
DF9009FE000001EF40002FF5
DF800BFC000009FD00007FE1
CFA00CFD00007FF80000DFA0
AFD009FF713AFFF20007FF30
5FF303FFFFFFBFC0002EF900
0DFB004CFEB37F8001CFD100
05FF70000000AF902DFE3000
007FF80000009FFCFFD30000
0006EFD610003EFFF9100000
000029EFFC20025510000000
000000047700000000000000
ENDCHAR
STARTCHAR A
ENCODING 65
SWIDTH 552 0
DWIDTH 20 0
BBX 22 36 -4 -9
BITMAP
0000000000000000025630
0000000000000002BFFFF6
000000000000004EFEAEFD
00000000000005FFB109FE
0000000000003EFA0009FD
000000000001DFC1000AFB
000000000008FF30000DF8
00000000002FFA00001FF6
0000000000AFF300005FF4
0000000003FFB000008FF1
0000000009FF500000CFE0
000000001EFE000000EFC0
000000006FF8000003FF90
00000000CFF3000006FF70
00000002FFD0000009FF40
00000008FF8000000CFF20
0000000DFF3000001FFE00
0000003FFE0000003FFC00
0000009FF92333216FF900
000001EFFFFFFFFFFFFB76
0016BFFFFFFFFFFFFFFFF3
08EFFFFFD987679CFFFF60
08854FFF80000002FFF300
00005FFF40000004FFD000
0000BFFE00000007FFB000
0001FFFB00000009FF9000
0007FFF70000000BFF7000
000DFFF30000000DFF6000
003FFFE00000000FFF6000
009FFF900000001FFF6000
01EFFF400000001FFF7000
08FFFC000000001FFFA000
3FFEA2000000000FFFE000
553000000000000DFFF600
0000000000000009FD8300
0000000000000002300000
ENDCHAR
STARTCHAR B
ENCODING 66
SWIDTH 607 0
DWIDTH 22 0
BBX 22 34 -1 -7
BITMAP
0000000006DB6776400000
000000005EFFFFFFFE9200
0000007DFFFE9768DFFE40
00004DFFFFF800000BFFE2
0000AFFFFFF4000002FFF8
00009FE5FFE0000000DFFC
00003926FF90000000CFFE
0000000AFF50000000EFFD
0000000EFF10000002FFF9
0000003FFB00000007FFF4
0000008FF70000000EFFC0
000000CFF20000007FFF40
000001FFD0000003EFF800
000005FF9000001DFFB000
000009FF500001BFFB1000
00000EFF269A9DFF900000
00003FFEEFFFFFFC000000
00007FFEFFFFFBFFC20000
0000BFF5CFD8204FFD1000
0001FFF101000007FFA000
0005FFC000000001FFF300
0009FF9000000000CFF800
000DFF5000000000CFFB00
002FFF2000000000EFFC00
007FFE0000000002FFFA00
00BFFB0000000008FFF700
00EFF7000000001EFFF100
04FFF400000000AFFF9000
08FFF100000007FFFD1000
0CFFD00000008FFFE30000
1FFFA000004CFFFD200000
2FFFC6458CFFFF81000000
08EFFFFFFFFD8200000000
001589A986200000000000
ENDCHAR
STARTCHAR C
ENCODING 67
SWIDTH 548 0
DWIDTH 20 0
BBX 20 34 0 -7
BITMAP
00000000000047884000
00000000007EFFFFFC20
000000003CFFD648FFC0
00000004EFF900009FF5
0000004FFF8000006FFA
000002EFFA0000006FFD
00000CFFD10000008FFE
00006FFF50000000BFFD
0001EFFB00000001FFFB
0008FFF400000008FFF8
001EFFC00000005FFFF2
007FFF60000000DFFFB0
00DFFE100000003EFB10
03FFFA00000000002000
08FFF500000000000000
0DFFF100000000000000
1FFFC000000000000000
5FFF9000000000000000
8FFF6000000000000000
AFFF3000000000000000
CFFF1000000000000000
EFFF0000000000000000
FFFE0000000000000000
FFFC0000000000000000
EFFC0000000000000000
CFFD0000000000070000
AFFF00000000007F1000
6FFF3000000003F80000
1EFF900000003ED10000
08FFF3000006EF400000
01DFFE6225BFF5000000
003EFFFFFFFF60000000
0002BFFFFFC300000000
00000368730000000000
ENDCHAR
STARTCHAR D
ENCODING 68
SWIDTH 632 0
DWIDTH 23 0
BBX 23 34 -1 -7
BITMAP
000000000367641000000000
00000018EFFFFFFB40000000
000005EFFFFFFFFFFB100000
00001FFFFB7545AFFFD20000
00001FF920000002CFFD0000
00000C30000000001DFF8000
000000028E80000005FFF200
0000003FFF70000000DFF800
0000005FFF500000009FFD00
0000007FFF200000006FFF20
000000AFFE000000004FFF50
000000CFFB000000003FFF60
000000EFF8000000003FFF70
000002FFF4000000004FFF70
000005FFF1000000005FFF70
000007FFD0000000007FFF50
00000AFF9000000000AFFF30
00000EFF6000000000DFFE00
00002FFF2000000001FFFB00
00005FFD0000000006FFF600
00009FF9000000000BFFF100
0000DFF5000000002FFF9000
0001FFF1000000008FFF2000
0005FFC000000001EFF90000
000AFF7000000009FFE10000
000EFF300000004FFF600000
003FFE00000001DFFA000000
008FFA0000000BFFD1000000
00DFF5000001BFFE20000000
05FFF100002CFFD200000000
1EFFE10028FFFC1000000000
1CFFFEBCFFFE700000000000
007EFFFFFE81000000000000
000158863000000000000000
ENDCHAR
STARTCHAR E
ENCODING 69
SWIDTH 523 0
DWIDTH 19 0
BBX 22 34 -2 -7
BITMAP
0000000000000157761000
000000000006CFFFFFF700
0000000004DFFD8437FF70
000000008FFF700000AFE1
00000009FFF50000008FF5
0000006FFF600000009FF5
000002EFFB00000000DFF3
000009FFF400000004FFE0
00000EFFE00000001DFF80
00003FFFA0000001CFFF20
00004FFF9000000BFFF600
00005FFF90000000474000
00002FFFB0000000000000
00000BFFF1000000000000
000003EFF9000000000000
0000004FFF600000000000
00000003DFFDFE80000000
0000003AFFFFFF90000000
000019FFD638CA10000000
0002DFF800000000000000
001DFF8000000000000000
00AFFC0000000000000000
03FFF40000000000000000
0AFFE00000000000021000
0EFFB000000000000D5000
0FFFB000000000006F1000
1FFFD00000000002EB0000
0EFFF1000000000BF40000
0BFFF800000000AFA00000
04FFFF4000001AFD100000
00AFFFF93127EFE3000000
000AFFFFFFFFFD30000000
00006DFFFFFE9100000000
0000003687510000000000
ENDCHAR
STARTCHAR F
ENCODING 70
SWIDTH 585 0
DWIDTH 21 0
BBX 20 34 1 -7
BITMAP
00000000124566652000
0000049CFFFFFFFFFC40
0006DFFFFECA99BEFFF5
01BFFFA510000001BFFB
0BFFD300000000004FFB
4FFF7000000000005FF8
7FFFA000000000009FF3
6FFFFDCB10000001FFB0
0CFFFFF300000008FF30
007DFF600000001EFB00
000021000000007FF400
00000000000001EFC000
00000000000007FF5000
0000000000001EFD0000
0000002345559FF81000
000AEFFFFFFFFFFFFE70
004FFFFFFFEFFFFFFD20
008FC852101EFF211000
00210000007FFB000000
0000000000EFF5000000
0000000006FFE0000000
000000000DFF80000000
000000005FFF20000000
00000000CFFC00000000
00000003FFF700000000
00000009FFF200000000
0000000EFFC000000000
0000004FFF8000000000
0000008FFF6000000000
000000BFFF4000000000
000000EFFF3000000000
000001FFFF2000000000
000002FFFE3000000000
00000066200000000000
ENDCHAR
STARTCHAR G
ENCODING 71
SWIDTH 612 0
DWIDTH 22 0
BBX 21 34 0 -7
BITMAP
0000000000000468720000
000000000006DFFFFF5000
0000000002CFFC66DFF200
000000003EFF70004FF900
00000003EFF600000FFD00
0000002EFF9000000EFF00
000000BFFC0000001FFF10
000007FFF40000004FFF00
00002EFFA0000000AFFD00
00009FFF30000004FFFA00
0002FFFB0000003EFFF500
0009FFF6000000BFFFD000
001FFFE10000002DFE3000
006FFFA000000001630000
00CFFF4000000000000000
02FFFE0000000000000000
06FFFA0000000000000000
0AFFF60000000000000000
0DFFF3000268ABCDEFFF80
1FFFE0000CFFFFFFFFFF40
3FFFC00009BA999CFFB700
5FFF90000000000AFF3000
6FFF70000000000DFE0000
6FFF60000000003FF90000
6FFF50000000009FF40000
5FFF5000000001EFC00000
3FFF5000000008FF400000
0EFF700000002FFB000000
0AFF90000000BFE2000000
03FFE0000009FF50000000
00AFF700009FF800000000
001DFF835CFF8000000000
0002CFFFFFE60000000000
000006ACC8200000000000
ENDCHAR
STARTCHAR H
ENCODING 72
SWIDTH 649 0
DWIDTH 23 0
BBX 25 34 -1 -7
BITMAP
00000000000100000000000000
000000004BF90000000005AB70
00000002FFF5000000004FFF50
00000006FFF100000000AFFE00
0000000AFFC000000000EFFA00
0000000DFF7000000004FFF400
0000002FFF3000000008FFE000
0000005FFE000000000BFF9000
0000009FFA000000001FFF4000
000000CFF6000000004FFE0000
000001FFF2000000008FFA0000
000004FFD000000000CFF60000
000008FF9000000001FFF10000
00000BFF5000000004FFC00000
00000FFF2000000008FF700000
00004FFD000234566DFF620000
00007FFECEFFFFFFFFFFFFE100
0019FFFFFFFEDDEFFFFFFFB000
006FFFF89DFE40009FFCFD1000
0004FFD0007FF300CFF1110000
0006FFA00006FD10FFC0000000
000AFF700000BF73FF90000000
000EFF4000002FE7FF50000000
002FFF2000000AFDFF20000000
006FFE00000005FFFD00000000
009FFB00000002FFFA00000000
00DFF800000000FFF700000000
01FFF600000000FFF400000000
05FFF300000002FFF100000000
08FFF100000003FFE000000000
0CFFD000000006FFC000000000
1FFFB000000009FFA000000000
4FFF9000000009FF7000000000
29840000000000100000000000
ENDCHAR
STARTCHAR I
ENCODING 73
SWIDTH 537 0
DWIDTH 19 0
BBX 22 34 -3 -7
BITMAP
0000000000000000146200
0000000000000018EFFE20
00000000000003DFFBFF60
0000000000003EFF80EF80
000000000001DFFA01FF80
000000000008FFE103FF70
00000000001EFF7005FF60
00000000006FFF2008FF50
0000000000AFFC000BFF40
0000000000CFF9000EFF10
0000000000DFF6003FFE00
0000000000DFF4006FFC00
0000000000CFF200AFF900
0000000000AFF100EFF500
00000000007FF203FFF200
00000000003FF507FFD000
00000000000DF80BFF9000
000000000005E20EFF5000
000000000000004FFF1000
00000000002457BFFE8764
00000048CEFFFFFFFFFFFC
00007DFFFFFEBAFFF43220
003DFFFE951006FFB00000
04EFFE7100000BFF500000
1EFFD20000001FFE000000
6FFF400000005FF8000000
AFFF00000000BFF2000000
9FFF10000002FFA0000000
5FFF50000009FF20000000
0CFFD100002FF800000000
03FFFB1000BFC000000000
004EFFE74BFD2000000000
0002BFFFFFC20000000000
0000026885000000000000
ENDCHAR
STARTCHAR J
ENCODING 74
SWIDTH 500 0
DWIDTH 18 0
BBX 25 34 -3 -7
BITMAP
00000000000000234443200000
00000000001ADFFFFFFFFFDA10
00000000005FFFFFFFFFFFFF30
00000000004EB8655FFF567800
00000000000000005FFC000000
00000000000000009FF9000000
0000000000000000DFF5000000
0000000000000002FFF2000000
0000000000000006FFE0000000
000000000000000AFFA0000000
000000000000000EFF70000000
000000000000002FFF40000000
000000000000006FFF10000000
00000000000000AFFC00000000
00000000000000EFF800000000
00000000000003FFF500000000
00000000000007FFF200000000
000003BD40000BFFD000000000
00006FFFD0000EFFA000000000
0006FFFFF1003FFF7000000000
003FFFFC70007FFF3000000000
00CFFF600000BFFE0000000000
05FFF5000001FFF90000000000
0CFF80000005FFF40000000000
3FFD00000009FFE00000000000
7FF70000000EFF700000000000
AFF20000005FFE100000000000
CFE0000000BFF8000000000000
DFD0000003FFE1000000000000
CFE000000CFF60000000000000
7FF300007FFA00000000000000
1EFB0007FFB000000000000000
03EFDBDFF80000000000000000
0018CDC9200000000000000000
ENDCHAR
STARTCHAR K
ENCODING 75
SWIDTH 497 0
DWIDTH 18 0
BBX 22 37 -2 -10
BITMAP
0000000001540000000130
000000007FFC000002AFF3
00000001EFF6000003FFF4
00000005FFF1000003FFF3
0000000AFFA0000006FFF1
0000001EFF5000000BFFD0
0000004FFE1000002FFF80
0000009FFA0000008FFF20
000000DFF5000001EFF800
000002FFF1000009FFE100
000007FFB000004FFF5000
00000BFF600001DFF90000
00000EFF20000BFFB00000
00003FFD00009FFC100000
00007FF90009FFB1000000
0000AFF501AFFA00000000
0000EFF13DFE6000000000
0003FFEBFFA20000000000
0019FFFFFCAA8500000000
005FFFFEEEFFFFB0000000
002FFF40002AFFF6000000
001FFF100000DFFA000000
005FFC000000AFFA000000
008FFA000000AFF9000000
00CFF7000000DFF6000000
00FFF4000003FFF2000000
04FFF2000009FFC0000000
07FFE000001EFF70000000
0BFFC000005FFF10000000
0EFFB00000AFFA00000000
3FFF900000EFF500000000
7FFFA00000FFF300000000
AFFE500000FFF400000000
3640000000AFFA00000000
00000000002EFFA2014200
000000000003EFFFFFF300
00000000000017BCB82000
ENDCHAR
STARTCHAR L
ENCODING 76
SWIDTH 492 0
DWIDTH 18 0
BBX 24 35 -4 -8
BITMAP
000000000000000000156400
000000000000000008FFFF80
0000000000000000BFFFFFE0
0000000000000008FFF9DFF2
000000000000002FFF50AFF2
00000000000000AFFA00CFE0
00000000000001FFF402FF90
00000000000006FFE00BFF20
0000000000000AFFA09FF900
0000000000000DFF79FFC100
0000000000002FFFEFFD2000
0000000000005FFFFFD20000
00000D853469DFFFF9100000
00000AFFFFFFFFFC40000000
0000007CFFFEFFF300000000
000000000003FFE000000000
000000000007FFB000000000
00000000000AFF7000000000
00000000000EFF3000000000
00000000003FFE0000000000
00000000007FF90000000000
0000000000CFF40000000000
0000000002FFE00000000000
0000000007FF800000000000
000000000CFF200000000000
000000004FFA000000000000
00000100AFF3000000000000
007CFFFCFF90000000000000
0CFFFFFFFF40000000000000
6FFE87EFFFF9100000045000
8FF54AFECFFFE83025BF5000
5FFFFFC307FFFFFFFFFF1000
06BCA500002AFFFFFFF80000
00000000000028DFFE700000
000000000000000110000000
ENDCHAR
STARTCHAR M
ENCODING 77
SWIDTH 733 0
DWIDTH 26 0
BBX 30 34 -4 -7
BITMAP
000000000000000120000000000021
00000000000004BFF1000000017DFD
0000000000001FFFF20000000AFFFF
0000000000007FFFF20000003FFFFE
000000000000DFFFF3000000AFFFFB
000000000004FFDFF3000002FFBEF8
000000000009FF7FF3000009FF6FF6
00000000000EFB5FF400002FFB6FF2
00000000005FF76FF400009FF3AFE0
0000000000AFF37FF30001EFB0DFB0
0000000000EFE08FF20008FF32FF80
0000000004FFB0AFF0001EFB06FF50
0000000008FF70CFE0006FF40AFF10
000000000DFF40DFD000CFC00DFD00
000000003FFF00FFB004FF502FFA00
000000007FFB01FFA00AFD006FF700
00000000BFF802FF902FF6009FF300
00001000EFF403FF808FE100DFF000
0003E302FFF104FF81EF9002FFC000
001DE106FFC005FF86FF3005FF9000
009F7009FF9005FF8CFB0009FF6000
02FF100CFF5005FFCFF6000CFF3000
09FA000FFF1005FFFFF1001FFF1000
0EF5003FFD0004FFFFA0004FFD0000
3FF2007FF90002FFFF60007FFA0000
6FE000BFF60000EFFF3000AFF80000
8FD001FFF30000BFFF3000DFF60000
9FD005FFE000006FFB1001FFF60000
8FE00BFFA0000005500004FFF60000
7FF32FFF60000000000006FFF80000
4FF9BFFF10000000000005FFFC0000
0DFFFFF800000000000002FFFF5000
03EFFFD1000000000000007FFFF910
001687100000000000000004885100
ENDCHAR
STARTCHAR N
ENCODING 78
SWIDTH 541 0
DWIDTH 19 0
BBX 25 34 -2 -7
BITMAP
00000000000000000000278300
00000004BE4000000007FFFF30
0000003FFF800000006FFFFF90
0000007FFF90000001EFF92FB0
000000AFFFB0000007FFC01FA0
000000EFFFC000000CFF504F90
000002FFFFD000001FFE00BF50
000006FFDFE000005FFA04FE10
000009FD9FF000009FF62EF600
00000CFA7FF10000DFF5DFA000
00001FF75FF20274FFFFFA0000
00004FF34FF201BFFFFE600000
00008FE03FF20007FFA0000000
0000CFC01FF30008FF60000000
0001FF801FF3000AFF30000000
0004FF500FF3000CFF00000000
0008FF200EF4000EFD00000000
000CFE000EF5002FFA00000000
001FFC000DF6004FF800000000
004FF9000DF7007FF500000000
008FF6000CF800AFF200000000
00CFF3000BF900DFF000000000
00FFF1000AFB01FFC000000000
04FFE00009FC04FF9000000000
07FFB00008FE08FF6000000000
0BFFA00006FF1BFF2000000000
0EFF800004FF5EFE0000000000
2FFF800002FFBFFA0000000000
4FFF800000DFFFF60000000000
6FFF800000AFFFF20000000000
7FFF9000006FFFE00000000000
6FFFC000002FFFA00000000000
1EFFC0000009FE300000000000
01530000000041000000000000
ENDCHAR
STARTCHAR O
ENCODING 79
SWIDTH 567 0
DWIDTH 20 0
BBX 19 34 0 -7
BITMAP
00000000018CB4310000
000000003DFFFFFE4000
00000004EFFFFBFFE100
0000002EFFDD308FF700
000001DFF953002FFC00
000008FFC000000EFF10
00003FFF3000000CFF30
0000BFFA0000000AFF50
0003FFF200000009FF70
000AFFA000000009FF80
002FFF4000000008FF80
007FFD0000000008FF90
00CFF80000000009FF90
02FFF30000000009FF80
06FFE0000000000BFF70
0AFFB0000000000DFF60
0DFF80000000000FFF40
1FFF50000000002FFF20
3FFF30000000005FFE00
5FFF10000000008FFB00
7FFE0000000000BFF700
9FFD0000000001FFF300
9FFC0000000005FFD000
AFFB000000000AFF8000
9FFB000000001FFF2000
9FFB000000008FFB0000
7FFC00000001EFF40000
5FFE00000008FFB00000
1FFF1000002FFE200000
0BFF500001DFF7000000
05FFB0001BFF90000000
00AFF936DFF900000000
001BFFFFFE6000000000
00006BDB710000000000
ENDCHAR
STARTCHAR P
ENCODING 80
SWIDTH 552 0
DWIDTH 20 0
BBX 23 34 -2 -7
BITMAP
000000000001478876100000
0000000028CFFFFFFFF80000
0000002AFFFD8546BFFFA000
000008FFFFF3000006FFF600
0000BFFFBFF3000000AFFD00
0000FFE48FE00000004FFF20
0000AE30CFB00000001FFF50
00001201FF700000000FFF70
00000005FF400000001FFF60
00000009FF100000004FFF30
0000000DFC000000007FFF10
0000002FF800000000CFFA00
0000006FF500000004FFF300
000000AFF10000000CFFA000
000000EFD00000008FFE2000
000003FFA0000006FFF40000
000007FF7000008FFF500000
00000BFF40003CFFE4000000
00000EFF104AFFFA20000000
00004FFFAEFFFC4000000000
00007FFFFEC8300000000000
0000BFF91000000000000000
0001FFF50000000000000000
0004FFF20000000000000000
0008FFE00000000000000000
000CFFA00000000000000000
001FFF700000000000000000
005FFF300000000000000000
00AFFE000000000000000000
01FFFA000000000000000000
08FFF5000000000000000000
4FFFE1000000000000000000
5EFE50000000000000000000
013100000000000000000000
ENDCHAR
STARTCHAR Q
ENCODING 81
SWIDTH 583 0
DWIDTH 21 0
BBX 20 34 0 -7
BITMAP
00000000000468620000
0000000007EFFFFF8000
00000002DFFF97DFF800
0000003EFFC2001CFF30
000002EFFC100003FFA0
00000CFFD1000000DFE0
00007FFF300000009FF3
0002EFF9000000007FF7
0009FFE1000000005FF8
001FFF80000000005FFA
007FFF20000000006FFA
00DFFB00000000007FFA
02FFF700000000008FF8
07FFF30000000000BFF7
0AFFE00000000000EFF4
0DFFB00000000002FFF1
0FFF900000000006FFD0
1FFF70000000000BFF90
1FFF60000000001FFF50
0FFF60000000006FFF10
0CFF9000000000CFFA00
07FFD000000004FFF400
01EFF80000000BFFC000
004FFFC500002FFF5000
0004CEA10000AFFC0000
000000000004FFF40000
00005ABB951DFF900000
002BFFFFFFFFFD100000
00CFFD869FFFF2000000
06FFD1006FFFF8000000
09FF8019FFECFF910000
07FFFDFFFD308FFD5000
01DFFFFF910003CFFC94
00168961000000048A71
ENDCHAR
STARTCHAR R
ENCODING 82
SWIDTH 560 0
DWIDTH 20 0
BBX 23 36 -2 -9
BITMAP
000000000001478987200000
0000000027CFFFFFFFFA1000
0000002AFFFD85349FFFD100
000007EFFFF6000003EFF900
00008FFFBFF70000006FFF20
0000BFF74FF30000000EFF60
00006F508FE00000000CFF90
00000300CFB00000000BFFB0
00000001FF800000000CFFA0
00000005FF500000000EFF80
00000009FF100000003FFF40
0000000DFD000000008FFE00
0000001FFA00000001EFF800
0000005FF600000008FFE100
0000009FF30000003FFF6000
000000DFF0000002EFF90000
000006FFE300004EFFA00000
0001CFFFFFD419FFF9000000
0006FFFFAAFFEFFE50000000
0004FFFFCDFFFE8100000000
00008FFFFFDEFC0000000000
00005FFE2006FF3000000000
00009FFB0001FF8000000000
0000DFF80000CFC000000000
0001FFF50000AFF100000000
0005FFF200008FF300000000
0009FFE000008FF600000000
000DFFA000007FF800000000
002FFF7000006FFA00000000
008FFF2000006FFC00000000
01EFFD0000005FFE00000000
1BFFF70000003FFF20000000
09FFB00000000FFFA1021000
0011000000000AFFFFFA0000
00000000000003FFFFB10000
0000000000000039B7000000
ENDCHAR
STARTCHAR S
ENCODING 83
SWIDTH 474 0
DWIDTH 17 0
BBX 20 34 -2 -7
BITMAP
0000000000168AA96100
0000000018EFFFFFFE30
00000002DFFFA525FFE1
0000002EFFD300009FF7
000001DFFB1000005FFA
000007FFD10000004FFC
00000EFF400000007FFB
00003FFE00000000AFF9
00006FFE00000001FFF5
00005FFF10000007FFE0
00003FFF5000000EEA30
00000EFFD00000000000
000008FFF70000000000
000001EFFF5000000000
0000005FFFF500000000
00000009FFFE30000000
00000000BFFFD1000000
000000001DFFF8000000
0000000002EFFE100000
00000000007FFF600000
00000000000EFF900000
000000000008FFC00000
000000000003FFD00000
000000000000FFC00000
017BA0000000EFA00000
2DFF60000000FF700000
8FFF20000003FF400000
AFFF20000008FE000000
8FFF4000001EF9000000
4FFF900000AFE2000000
0DFFF40008FF70000000
05FFFFA9DFF900000000
008FFFFFFF7000000000
00049CCB720000000000
ENDCHAR
STARTCHAR T
ENCODING 84
SWIDTH 423 0
DWIDTH 15 0
BBX 19 34 1 -7
BITMAP
00000000011100000000
058ABDEFFFFFFFECBA30
8FFFFFFFFFFFFFFFFF40
DFFFFFDCFFF977788700
CEA73105FFF100000000
00000008FFC000000000
0000000CFF7000000000
0000001FFF3000000000
0000004FFE0000000000
0000008FFA0000000000
000000BFF60000000000
000000FFF20000000000
000004FFD00000000000
000007FF900000000000
00000BFF500000000000
00000EFF200000000000
00003FFD000000000000
00006FF9000000000000
0000AFF6000000000000
0000EFF2000000000000
0002FFE0000000000000
0006FFB0000000000000
0009FF80000000000000
000DFF60000000000000
001FFF30000000000000
005FFF10000000000000
008FFD00000000000000
00CFFA00000000000000
00FFF800000000000000
04FFF500000000000000
07FFF300000000000000
0BFFF100000000000000
0EFFC000000000000000
06630000000000000000
ENDCHAR
STARTCHAR U
ENCODING 85
SWIDTH 574 0
DWIDTH 21 0
BBX 22 34 0 -7
BITMAP
0000000000000000000010
00000016AC300000008EFE
000002EFFE00000005FFFA
000008FFF800000009FFF4
00000DFFF20000000DFFE0
00002FFFC00000002FFF90
00007FFF600000006FFF40
0000BFFF10000000AFFE00
0001FFFB00000000EFFA00
0004FFF600000003FFF600
0009FFF100000007FFF100
000DFFC00000000BFFC000
001FFF700000000EFF7000
005FFF300000003FFF3000
009FFE000000006FFD0000
00CFF900000000AFF90000
01FFF500000000DFF50000
04FFF100000001FFF10000
07FFC000000005FFC00000
0AFF8000000008FF900000
0CFF500000000BFF600000
0FFF200000001FFF300000
3FFE000000005FFF100000
5FFC00000000AFFE000000
7FFA00000001FFFC000000
8FF900000007FFFA000000
9FF80000000DFFF9000000
9FFA0000007FFFF7000000
8FFC000002EFEFF7000000
6FFF20001CFD7FF7000000
3FFFB102CFE35FF9000000
0BFFFFEFFE403FFC000000
01BFFFFFB2000BFF200000
0004787300000031000000
ENDCHAR
STARTCHAR V
ENCODING 86
SWIDTH 503 0
DWIDTH 18 0
BBX 20 34 1 -7
BITMAP
00000000000000001200
0005CED200000001EF60
000EFFC000000008FFF2
004FFF500000001EFFD2
008FFE000000006FFF40
00BFF900000000CFFA00
00EFF400000003FFF300
03FFF100000009FFC000
06FFB00000001EFF6000
08FF800000005FFF1000
0BFF50000000AFFB0000
0DFF20000001FFF50000
0FFF00000005FFE10000
2FFD0000000AFFA00000
3FFB0000000EFF500000
5FFA0000004FFE100000
5FF90000009FFA000000
6FF8000000EFF5000000
5FF8000004FFE0000000
5FF8000008FFA0000000
4FF800000DFF40000000
3FF800003FFE00000000
2FF900007FF800000000
1FFA0000CFF200000000
0EFB0001FFB000000000
0CFC0006FF4000000000
09FE000BFD0000000000
07FF101FF70000000000
04FF406FE10000000000
01FF81DF800000000000
00BFEDFE100000000000
004FFFF7000000000000
000BFFD0000000000000
0001AB20000000000000
ENDCHAR
STARTCHAR W
ENCODING 87
SWIDTH 817 0
DWIDTH 29 0
BBX 29 34 0 -7
BITMAP
000000001100000000000000027950
0000006DFF400000000000003FFFB0
000003FFF8000000271000002FFFC0
000009FFE1000004EF5000000FFFD0
00001EFF7000001EFF5000000EFFD0
00005FFE1000008FFF3000000DFFC0
0000BFF9000000DFFF0000000DFFA0
0001FFF3000002FFFC0000000DFF90
0006FFC0000006FFF90000000DFF70
000AFF70000008FFF50000000EFF50
000EFF2000000AFFF10000000FFF20
004FFD0000000BFFD00000002FFF00
008FF80000000CFF800000004FFC00
00CFF40000000DFF400000007FF900
00FFF10000000DFF00000000AFF600
04FFC00000000EFC00000000EFF200
07FF800000004FFA00000002FFE000
09FF500000009FF800000006FF9000
0CFF20000000EFF600000009FF5000
0DFE00000005FFF50000000EFF1000
0FFC0000000AFFF30000004FFB0000
0FFB0000001FFFF20000009FF60000
1FF90000006FFFF2000000DFE10000
1FF9000000CFEFF2000004FF900000
1FF9000003FF8FF2000009FF300000
0FF900000AFD3FF200001EFB000000
0EFA00003FF72FF300007FF4000000
0CFC0000AFE10FF60001EFB0000000
0AFF1004FF700EF80008FF30000000
06FF601DFC000BFD004FF900000000
02FFE8DFF30008FF86EFD100000000
00AFFFFF600002FFFFFE3000000000
002EFFF7000000AFFFE30000000000
0002994000000019C9200000000000
ENDCHAR
STARTCHAR X
ENCODING 88
SWIDTH 579 0
DWIDTH 21 0
BBX 27 34 -2 -7
BITMAP
0000005AA6000000000000034000
000009FFFF900000000001BFF900
00007FC7EFF3000000002DFFFF40
0001EF205FF900000001CFFFA200
0007FC000EFE0000000AFFF80000
000BFA0009FF2000006FFF900000
000CFC0006FF500002EFFB000000
000AFF5003FF80000BFFC1000000
0006FFFA7BFFA0006FFE20000000
0001DFFFFFEFD002EFF500000000
00003EFFF6AFF00BFFA000000000
0000028A408FF26FFD1000000000
00000000006FF5EFF40000000000
00000000004FFEFF900000000000
00000000003FFFFD100000000000
00000000001FFFF4000000000000
00000000000FFF90000000000000
00000000005FFE10000000000000
0000000001EFFD00000000000000
000000000AFFFE00000000000000
000000005FFFFF00000000000000
00000001EFFCFF20000000000000
0000000AFFA6FF30000000000000
0000004FFE14FF50000000000000
000001DFF602FF80000000000000
000009FFC000FFB0000000000000
00004FFF3000DFE0000000000000
0001DFF80000AFF4000000000000
000AFFE100006FF8000000710000
006FFF6000002FFD000007E10000
06FFFC0000000BFF7002BF500000
7FFFE200000004FFFCCFF6000000
08DD40000000008FFFFD40000000
0000000000000005985000000000
ENDCHAR
STARTCHAR Y
ENCODING 89
SWIDTH 532 0
DWIDTH 19 0
BBX 21 34 0 -7
BITMAP
0000000230000000004510
000008EFF20000003EFF70
00002FFFB00000008FFF20
00006FFF50000000CFFC00
0000BFFE00000000FFF800
0000EFF900000004FFF300
0004FFF400000007FFE000
0008FFE00000000AFFA000
000CFF900000000DFF5000
001FFF400000002FFF1000
005FFF100000005FFC0000
008FFB000000009FF90000
00BFF700000000DFF50000
00EFF300000003FFF10000
03FFE000000009FFC00000
05FFB00000001EFF900000
08FF800000007FFF500000
0AFF50000001EFFF100000
0CFF40000009FFFC000000
0CFF4000005FECF9000000
0BFF800005FF5EF5000000
08FFF7349FF73FF1000000
02EFFFFFFF608FD0000000
004DFFFFA200DF90000000
000034310003FF40000000
00000000000AFE00000000
00000000002FF900000000
0000000000AFF200000000
02C6000006FFA000000000
1DFE40006FFE1000000000
9FFFFCADFFF40000000000
9FFFFFFFFE400000000000
1AFFFFFFA2000000000000
0037875100000000000000
ENDCHAR
STARTCHAR Z
ENCODING 90
SWIDTH 455 0
DWIDTH 16 0
BBX 21 34 -3 -7
BITMAP
0000000000012322110000
0000001ACEFFFFFFFFFD60
000000AFFFFFFFFFFFFFA0
000000EFFFFECBA98CFFC0
000002FC7410000009FFB0
00000020000000000DFF80
00000000000000006FFF20
0000000000000001EFFA00
000000000000000AFFE200
000000000000005FFF7000
00000000000002EFFC0000
0000000000000CFFE20000
0000000000008FFF500000
000000000005FFF7000000
00000000002EFFA0000000
0000000001DFFC10000000
000000000BFFE200000000
000000008FFF4000000000
00000005FFF60000000000
0000003EFF900000000000
000001DFFB000000000000
00000BFFD1000000000000
00007FFE30000000000000
0002FFF500000000000000
000CFF9000000000000000
006FFC0000000000000000
01EFF30000000000000000
08FF800000000000000000
1FFE100000000000000000
8FF737ADEFFFEDB8200000
CFFEFFFFFFFFFFFF400000
AFFFFFFFFFFFFFF9000000
6FFDA876789BEFA0000000
0510000000000100000000
ENDCHAR
STARTCHAR bracketleft
ENCODING 91
SWIDTH 202 0
DWIDTH 7 0
BBX 13 34 -2 -4
BITMAP
000000005CDD90
00000001FFFF80
00000006FFEB40
0000000BFD2000
0000001FF70000
0000005FF20000
0000009FD00000
000000DF800000
000003FF400000
000007FF100000
00000BFB000000
00000EF7000000
00004FF3000000
00008FE0000000
0000BFB0000000
0000FF70000000
0004FF30000000
0007FE00000000
000BFB00000000
000EF700000000
003FF300000000
006FE000000000
00AFB000000000
00DF8000000000
01FF5000000000
05FF1000000000
08FD0000000000
0BFA0000000000
0EF70000000000
2FF50000000000
5FF40000000000
7FFA3100000000
9FFFF700000000
5FFED400000000
ENDCHAR
STARTCHAR backslash
ENCODING 92
SWIDTH 273 0
DWIDTH 10 0
BBX 8 28 1 -1
BITMAP
03710000
6FF40000
7FF50000
5FF70000
3FF80000
1FFA0000
0DFC0000
0BFD0000
09FF0000
07FF2000
04FF3000
02FF5000
00FF7000
00DFA000
00AFC000
008FE000
006FF200
004FF500
001FF800
000EFB00
000CFE00
000AFF20
0007FF50
0005FF90
0003FFC0
0001FFF1
0000DFF4
00005850
ENDCHAR
STARTCHAR bracketright
ENCODING 93
SWIDTH 216 0
DWIDTH 8 0
BBX 13 35 -4 -5
BITMAP
00000000ABCC60
00000003FFFFD0
0000000259FFC0
0000000000FF90
0000000001FF70
0000000003FF30
0000000006FF10
0000000009FC00
000000000CF900
000000000FF600
000000003FF200
000000007FE000
00000000AFB000
00000000EF7000
00000002FF4000
00000006FF1000
0000000AFC0000
0000000EF80000
0000002FF50000
0000006FF10000
000000AFC00000
000000DF800000
000002FF500000
000006FF100000
00000BFC000000
00000EF7000000
00004FF3000000
00008FE0000000
0000DFA0000000
0002FF50000000
0009FF10000000
18BFFB00000000
4FFFF600000000
7FFFB000000000
01100000000000
ENDCHAR
STARTCHAR asciicircum
ENCODING 94
SWIDTH 287 0
DWIDTH 10 0
BBX 13 15 -1 12
BITMAP
00000000010000
00000008EFE000
0000005FFFF100
000001DFDFF300
000008FF4FF400
00002FF90FF600
0000AFE10FF700
0004FF600EF900
000DFC000DFB00
007FF4000BFD00
02EFA0000AFF00
0AFE200009FF20
4FF7000008FF40
9D90000006FD30
00000000001000
ENDCHAR
STARTCHAR underscore
ENCODING 95
SWIDTH 439 0
DWIDTH 16 0
BBX 19 4 -4 -1
BITMAP
1567899AAAA999864100
AFFFFFFFFFFFFFFFFF40
DFFFFFFFFFFFFFFFFF20
45432211000012345300
ENDCHAR
STARTCHAR grave
ENCODING 96
SWIDTH 567 0
DWIDTH 20 0
BBX 7 6 9 19
BITMAP
18500000
AFFB1000
6EFFD300
018EFE30
00019F60
00000100
ENDCHAR
STARTCHAR a
ENCODING 97
SWIDTH 435 0
DWIDTH 16 0
BBX 20 16 -1 -1
BITMAP
00000006BB5000000000
000002CFFFF400000000
00003EFC9FF400000000
0003EFB05FF840000000
001DFE1035FF60000000
009FF50005FF30000000
02FFC00008FE00000056
09FF60000BFC000003F5
0EFF10000FF800001DA0
3FFC00004FF50000BD10
6FFB0001CFF20009F300
8FFA001BFFE0007F6000
7FFE46DF7FF007F90000
4FFFFFF80EFBAFB00000
0BFFFD5009FFFA100000
01674000005730000000
ENDCHAR
STARTCHAR b
ENCODING 98
SWIDTH 415 0
DWIDTH 15 0
BBX 19 27 0 -1
BITMAP
00000015400000000000
000003EFB00000000000
00000CFFA00000000000
00004FFF900000000000
0000AFFF600000000000
0001FFFF200000000000
0007FFFD000000000000
000CFFF9000000000000
002FFFF4000000000000
007FFFE0000000000000
00BFFFA0000000000000
01FFFF40000000000000
05FFFD00000000000000
08FFF8005DC100000000
0BFFF204FFF600016B50
0EFFA008FFFB68BFF910
2FFF3002DFFFFFC72000
4FFA00001FFB31000000
6FF200004FF600000000
7FE000008FF200000000
7FC00001EFA000000000
7FC00007FF3000000000
5FE0001EF90000000000
2FF201CFC10000000000
0CFC8DFD200000000000
04FFFFB1000000000000
00387400000000000000
ENDCHAR
STARTCHAR c
ENCODING 99
SWIDTH 363 0
DWIDTH 13 0
BBX 17 16 -1 -1
BITMAP
0000018BC910000000
00005EFFFFC0000000
0005FFE51FF2000000
003FFE21AFF2000000
00CFF306FFD0000000
05FF9005FF40000000
0AFF200063000003B0
1FFC00000000001D90
3FF80000000000BD10
5FF7000000000AF300
4FF600000000AF5000
2FF90000001AF60000
0DFE200003CF700000
06FFE8449FE5000000
00AFFFFFFB20000000
0005BDDA4000000000
ENDCHAR
STARTCHAR d
ENCODING 100
SWIDTH 483 0
DWIDTH 17 0
BBX 22 27 -1 -1
BITMAP
0000000000000000100000
000000000000003DFA0000
000000000000009FFD0000
00000000000000DFFE0000
00000000000002FFFD0000
00000000000007FFFC0000
0000000000000BFFFA0000
0000000000000EFFF70000
0000000000004FFFF30000
0000000000008FFFD00000
000000000000CFFF800000
000000035101FFFF300000
000006DFFD24FFFB000000
0000AFE65EB7FFF4000000
000AFE2008FCFFC0000000
006FF50005FFFF50000000
01EFB00003FFFC00000000
06FF3000008FF300000093
0CFB000000AFA0000007D1
1FF6000000DF2000005F40
3FF3000008FF000004F800
5FF200006FFC00003EA000
5FF40006FFFA0003EC1000
3FFB119FB9FB005EC10000
0DFFFFFA18FF8AFB100000
04EFFD6002EFFF80000000
00154000003BA300000000
ENDCHAR
STARTCHAR e
ENCODING 101
SWIDTH 372 0
DWIDTH 13 0
BBX 18 16 -1 -1
BITMAP
00000017AA40000000
000006EFFFF2000000
00008FE6AFF5000000
0007FE305FF3000000
003FF600AFB0000000
00CFD006FE20000000
05FF706FE400000051
0BFF49FD30000007E1
0EFFDFB10000006F50
2FFFE600000006F800
2FFE200000006FA000
1FFF10000008FB0000
0CFF800002CF900000
04FFFA66AFE6000000
007FFFFFFA20000000
0004ACB83000000000
ENDCHAR
STARTCHAR f
ENCODING 102
SWIDTH 325 0
DWIDTH 12 0
BBX 20 43 -4 -17
BITMAP
00000000000110000000
0000000019EFB0000000
000000002FFFC0000000
000000000EFFC0000000
000000000DFFA0000000
000000000EFF70000000
000000000EFF30000000
000000001FFE00000000
000000004FFA00000000
000000008FF500000000
00000000CFE100000000
00000001FFA000000000
00000004FF6000000000
00000008FF1000000000
0000000CFB0000000000
0000002FF70003578992
0000007FF58CEFFECA80
000001DFFFFD84100000
00002EFFE94000000000
0000CFFF200000000000
0001FFFC000000000000
0000DFF8000000000000
00006FFE500000000000
00009FFFF70000000000
0000DFAAFF5000000000
0002FF50BFE200000000
0005FF102EFA00000000
0009FD0008FF20000000
000DF90002FF70000000
002FF60000EFA0000000
006FF20000DFC0000000
00AFE00000DFB0000000
00DFB00001FF80000000
02FF700006FF50000000
05FF40000CFE00000000
09FF00005FF800000000
0CFC0001DFE200000000
1FF9000BFF6000000000
4FF701BFFB0000000000
6FFC9EFFD20000000000
5FFFFFFD200000000000
1EFFFFB2000000000000
04CDB500000000000000
ENDCHAR
STARTCHAR g
ENCODING 103
SWIDTH 459 0
DWIDTH 17 0
BBX 21 33 -1 -18
BITMAP
0000003772000000000000
00001BFFFE304950000000
0001DFE88FB2FF80000000
000BFD200BF9FF20000000
006FF40007FFFC00000000
00DFB00005FFF900000000
04FF500001DFF600000200
09FE0000007FF200006F10
0CFC000000AFE00004F700
0EFA000001EFA0005FA000
0FFB000008FF6006FB1000
0EFD00005FFF309FB00000
0BFF6017FEFE3CFA000000
06FFFFFFABFEFF60000000
00BFFFE70EFFD300000000
00057511AFF91000000000
0000001CFFF20000000000
000003DFFFD00000000000
00004EF9EFA00000000000
0005FF83FF600000000000
006FF807FF300000000000
04FF900AFE000000000000
0DFD100EFB000000000000
4FF6003FF8000000000000
7FF2006FF5000000000000
8FF000AFF1000000000000
7FF000EFC0000000000000
5FF104FF70000000000000
2FF50AFF20000000000000
0BFDAFFB00000000000000
04FFFFF400000000000000
007FFFA000000000000000
0004870000000000000000
ENDCHAR
STARTCHAR h
ENCODING 104
SWIDTH 465 0
DWIDTH 17 0
BBX 21 26 -1 -1
BITMAP
0000016991000000000000
000007FFF3000000000000
000007FFF2000000000000
000008FFE0000000000000
00000AFFA0000000000000
00000DFF50000000000000
00002FFF10000000000000
00005FFB00000000000000
00009FF700000000000000
0000CFF200000000000000
0001FFD000010000000000
0004FF8019EFC100000000
0008FF34EFFFF800000000
000BFE4EEADFFB00000000
000EFCEB106FFA00000000
003FFFB0006FF800000000
007FFC10009FF400000000
00AFF30000DFE000002D20
00EFC00003FF900001DB00
02FF800008FF30001CD100
06FF50000DFD0001CD2000
0AFF20001FF7003DD20000
0DFE00004FF928FC200000
2FFB00004FFFFFB1000000
4FF800000DFFF700000000
07A2000002982000000000
ENDCHAR
STARTCHAR i
ENCODING 105
SWIDTH 274 0
DWIDTH 10 0
BBX 13 25 0 -1
BITMAP
00000010000000
000006F8000000
00003FFC000000
00007FF9000000
00002DA1000000
00000000000000
00000000000000
00000000000000
00000000000000
00000000000000
0018CC00000000
008FFA00000000
00EFF500000000
04FFE100000000
08FFA000000000
0BFF5000000670
0EFF1000004F60
1FFB000002EB00
2FF700002DE100
4FF30002DE3000
4FF1003DF40000
3FF206EF500000
0DFEDFE5000000
03EFFD30000000
00155000000000
ENDCHAR
STARTCHAR j
ENCODING 106
SWIDTH 267 0
DWIDTH 10 0
BBX 21 40 -8 -16
BITMAP
0000000000000038100000
00000000000004FF500000
0000000000000EFF400000
0000000000002FFB000000
0000000000000881000000
0000000000000000000000
0000000000000000000000
0000000000000000000000
0000000000000000000000
0000000000000000000000
000000000008B600000000
00000000003FFE00000000
00000000008FF900000000
0000000000CFF500000000
0000000001FFF100000000
0000000006FFB000000680
0000000009FF6000006F50
000000000DFF200006F900
000000002FFC00006FA000
000000006FF80007FB0000
000000009FF5009FA00000
00000000CFF22CF8000000
00000000FFE5EF60000000
00000003FFFFD400000000
00000006FFF91000000000
0000003DFF600000000000
000005FFFF100000000000
00005FFFFC000000000000
0004FFCFF9000000000000
002EFA7FF5000000000000
00CFD1AFF2000000000000
06FF40EFD0000000000000
0EFB02FF80000000000000
5FF406FF40000000000000
8FE00AFE00000000000000
7FC00EF900000000000000
5FC05FF400000000000000
0EF2CFD000000000000000
07FFFF5000000000000000
007DE70000000000000000
ENDCHAR
STARTCHAR k
ENCODING 107
SWIDTH 440 0
DWIDTH 16 0
BBX 20 27 -1 -2
BITMAP
000005CEE00000000000
00000AFFF00000000000
00000BFFD00000000000
00000CFF900000000000
00000EFF500000000000
00001FFF100000000000
00004FFB000000000000
00007FF7000000000000
0000AFF2000000000000
0000DFC0000000000000
0002FF70002300000000
0005FF203BFFC0000000
0009FB07FFFFF4000000
000CF78FC7DFF5000000
001FF8F9007FF1000000
005FFF8000CF70000000
008FFA000AF800000010
00CFB1ADDF50000002E3
01FF17FFFFB000001DA0
05FD04FDAFF10000AE10
09FA00106FF00007F500
0DF70000AFA0007F9000
2FF30001FF7008FB0000
6FF10002FFC8CFC10000
AFC00000EFFFFA100000
594000005EFC50000000
00000000001000000000
ENDCHAR
STARTCHAR l
ENCODING 108
SWIDTH 218 0
DWIDTH 8 0
BBX 10 26 -1 -1
BITMAP
0000016990
00000AFFF1
000009FFE0
00000BFFB0
00000DFF70
00001FFF30
00004FFE00
00008FFA00
0000BFF600
0000EFF200
0003FFE000
0007FFA000
000AFF6000
000EFF2000
003FFD0000
006FF90000
00AFF50000
00DFF20000
02FFD00000
05FF900000
09FF500000
0DFF100000
1FFD000000
5FF9000000
6FF5000000
0891000000
ENDCHAR
STARTCHAR m
ENCODING 109
SWIDTH 717 0
DWIDTH 26 0
BBX 30 15 -1 -1
BITMAP
00000200017CC300018CA200000000
0006EF803DFFFB004EFFFB00000000
000AFF84EFFFFF05FFFFFF10000000
000CFF7ED42EFF4FE67FFF20000000
001FFFEC100DFFEC101FFF10000000
004FFFE1000EFFE2004FFD00000068
008FFF50002FFF50007FFA000003F5
00CFFC00006FFC0000BFF700001DB0
00FFF500009FF40000FFF30000AE20
04FFE10000DFD00003FFE00007F600
07FFA00003FF800006FFB0006F9000
0BFF600007FF300008FF8007FB0000
0EFF20000CFF000009FFD7CFB10000
2FFE00001FFC000006FFFFF9000000
1A61000006500000006CC930000000
ENDCHAR
STARTCHAR n
ENCODING 110
SWIDTH 461 0
DWIDTH 17 0
BBX 21 15 -1 -1
BITMAP
0000583019EE7000000000
0009FF74EFFFF300000000
000DFF6EEBEFF700000000
001FFEEC20AFF800000000
005FFFD100AFF600000000
008FFE2000CFF300000830
00BFF60000FFE000006E10
00EFC00004FFA00003E700
03FF900008FF60001DC000
07FF50000CFF2000BE2000
0BFF10001FFD000AF50000
0EFD00004FFA01BF700000
4FF900005FFD8DF7000000
8FE400001EFFFF60000000
6710000003BDA200000000
ENDCHAR
STARTCHAR o
ENCODING 111
SWIDTH 393 0
DWIDTH 14 0
BBX 19 16 -1 -1
BITMAP
00000023000000000000
00006DFFE70000000000
0006FFFBDF8000000000
002EFD202FF300000260
00BFF6000CF900004E70
03FFF6000AFC0018F800
09FFF9000AFC06EE5000
0DFDFE500CFEDFB20000
1FF7AFFEDFFFE6000000
2FF41AFFFFF810000000
2FF40024CFF100000000
1FF50002FFA000000000
0EF9001CFE2000000000
09FF76DFF60000000000
01DFFFFE500000000000
0017AA71000000000000
ENDCHAR
STARTCHAR p
ENCODING 112
SWIDTH 451 0
DWIDTH 16 0
BBX 23 30 -4 -16
BITMAP
0000005BB2007DE700000000
000001DFF72DFFFF40000000
000000BFF9EFACFF80000000
000000DFFFD200EFA0000000
000001FFFD1000CFA0000000
000004FFE30000DF80000160
000008FF600003FF60000A90
00000BFD000009FF10007E20
00000FF800002FFA0005F600
00003FF50000BFF2004FA000
00007FFCD707FF9005FC0000
0000BFFFFFDFFD119FC10000
0000EFFFFFFFFB9EFB100000
0003FF9FFFFFFFFE70000000
0007FF27EFA3686200000000
000BFE000000000000000000
000EFB000000000000000000
003FF7000000000000000000
007FF4000000000000000000
00BFF1000000000000000000
00EFD0000000000000000000
03FFA0000000000000000000
07FF70000000000000000000
0BFF40000000000000000000
0EFF20000000000000000000
4FFE00000000000000000000
8FFB00000000000000000000
BFF900000000000000000000
4EF400000000000000000000
012000000000000000000000
ENDCHAR
STARTCHAR q
ENCODING 113
SWIDTH 462 0
DWIDTH 17 0
BBX 19 31 -1 -17
BITMAP
0000029EFB206B900000
00005EFBAFD1FFC00000
0005FF7009F9FF800000
003FFA0005FEFF300000
00CFF20003FFFE000000
04FFC000006FFA000000
0AFF7000006FF6000000
0EFF200000AFF2000000
1FFF000000EFD0000030
2FFD000006FFA00005E0
2FFD00000DFF60003E60
0FFE00008FFF2002DA00
0AFF8008FCFD001DC100
02EFFFFF6CF901CE2000
003BFFD41FF51CE30000
000001005FF3CF500000
000000009FECF6000000
00000000DFFF60000000
00000002FFF600000000
00000007FF7000000000
0000000BFE0000000000
0000004FFB0000000000
000000CFF90000000000
000004FFF70000000000
000008FFF60000000000
00000BFFF60000000000
00000AFFF60000000000
000007FFF60000000000
000001DFF70000000000
0000003DF60000000000
00000001410000000000
ENDCHAR
STARTCHAR r
ENCODING 114
SWIDTH 406 0
DWIDTH 15 0
BBX 21 19 -3 -2
BITMAP
0000000791000000000000
000000AFFA000000000000
000005FFFD000000000000
00000CFFFB000000000000
00000FFFF8131000000000
000009FFFFFFD100000000
00000AFEEFFFF800000000
00003FF5013FFB00000000
0000BFB0003FFB00000730
0003FF2000AFF500005F30
000BF80003FFB00002E900
003FD1000CFE20001DD100
00AF50005FF60000BF3000
03FB0000CFD0000AF50000
0AE20002FF9001BF700000
3F700001FFD46DF8000000
9D000000BFFFFF70000000
320000002CFFB300000000
0000000000210000000000
ENDCHAR
STARTCHAR s
ENCODING 115
SWIDTH 351 0
DWIDTH 13 0
BBX 10 18 0 -2
BITMAP
000007DA10
0000AFFF50
0008FFFC00
000FFFF200
000CFFF200
001DEFF500
009F3EFB00
04F709FF20
1DB003FFA0
8D1000DFF2
2100007FF8
0013001FFD
04EC000CFD
0EFF300BF6
0DFFB26FB0
05FFFFFB10
006EFE7000
0001210000
ENDCHAR
STARTCHAR t
ENCODING 116
SWIDTH 301 0
DWIDTH 11 0
BBX 19 26 -3 -1
BITMAP
000000001BD700000000
000000008FFA00000000
00000000EFF900000000
00000004FFF800000000
00000008FFF731000000
1777789EFFFFFFEC8300
6FFFFFFFFFFFFFFFFF10
048ABACFFF9001247600
0000009FFF5000000000
000000CFFF1000000000
000001FFFB0000000000
000004FFF60000000000
000007FFE10000000000
00000AFFA00000000000
00000DFF400000000000
00001FFD000000001000
00003FF700000005C000
00006FF10000002E5000
00008FA0000001DB0000
0000AF4000000CE20000
0000CF200000AF400000
0000DF20000AF6000000
0000CF7001BF90000000
00008FFA9EF900000000
00001DFFFF7000000000
0000018BA30000000000
ENDCHAR
STARTCHAR u
ENCODING 117
SWIDTH 468 0
DWIDTH 17 0
BBX 20 15 0 -1
BITMAP
00058300004970000000
00AFF30001EFD0000000
05FFC00007FFC0000000
0BFF70000CFFA0000000
1FFF20002FFF70000000
4FFC00006FFF3000005B
7FF700009FFD000002E5
AFF30000BFF800000CB0
DFE00000CFE100009E20
EFD00000BFA00007F500
FFD00003FFC0006F8000
DFF3004EFFF108FA0000
7FFFCCFF5FFDDFA00000
0AFFFFE409FFF7000000
00478610005620000000
ENDCHAR
STARTCHAR v
ENCODING 118
SWIDTH 427 0
DWIDTH 15 0
BBX 19 16 0 -1
BITMAP
00000000000120000000
018B3000004EF5000000
0DFF300003FFF6000000
3FFE00000CFFF2000000
6FFB00003FFFB0000040
8FF800006FFF30001AB0
9FF500007FFA0016DB10
9FF300007FFDBCFF7000
9FF20001EFDECB610000
8FF30009FB0000000000
7FF4005FE20000000000
4FF702EF400000000000
1FFD3DF7000000000000
0BFFFF90000000000000
04FFFA00000000000000
006C7000000000000000
ENDCHAR
STARTCHAR w
ENCODING 119
SWIDTH 646 0
DWIDTH 23 0
BBX 27 16 0 -1
BITMAP
0000000000251000000000000000
005BD10004FF900004BC10000000
03FFE0000DFF80003FFF10000000
08FFA0003FFF4000BFFE00000000
0CFF60006FFE0000FFFA00000020
0FFF10008FF80000FFF700002C80
3FFC00009FF20000DFF30017EA00
6FF90000AFB00000EFFECDFE6000
7FF50000AF400004FFFFEB600000
9FF20000BE000009FE1100000000
AFF00003FF10001EF90000000000
9FE0000BFF40007FF20000000000
7FF0008E5FB002EF700000000000
3FF95BF50CF86DFB000000000000
0BFFFF5003FFFFB1000000000000
018CA30000288500000000000000
ENDCHAR
STARTCHAR x
ENCODING 120
SWIDTH 399 0
DWIDTH 14 0
BBX 18 16 -2 -1
BITMAP
000287000000340000
000CFF500005FFC200
0004FFB0004FFF9000
0000DFF202EFF90000
00007FF61DFFA00000
00002FFBCFFA000000
00000CFFFFB0000000
000007FFFB00000000
000007FFD100000000
00005FFFB000000059
0003EFFFF1000006F4
002EFE4FF700009F60
01DFE30CFE204CF800
1CFE4007FFEDFF8000
9FF40001DFFFE50000
5C50000029A7100000
ENDCHAR
STARTCHAR y
ENCODING 121
SWIDTH 406 0
DWIDTH 15 0
BBX 14 30 -1 -16
BITMAP
004AA4000029C8
00AFFB00007FFF
00AFF900004FFE
00DFF500006FFA
02FFE100009FF5
07FFA00000EFF1
0BFF500006FFA0
1FFE00000DFF60
4FFA00007FFF10
6FF70002EFFC00
8FF5000CFFF800
7FF800AFEFF500
4FFFADFE8FF100
0CFFFFE4AFD000
018DEA20DFA000
00000002FF6000
00000006FF3000
0000000AFE0000
0000000EFB0000
0000003FF80000
0000007FF50000
000000BFF20000
000000EFE00000
000004FFB00000
000008FF800000
00000CFF500000
00001FFF200000
00004FFE000000
00000BFA000000
00000020000000
ENDCHAR
STARTCHAR z
ENCODING 122
SWIDTH 448 0
DWIDTH 16 0
BBX 21 31 -2 -16
BITMAP
0000000001234430000000
0000005BEFFFFFFB000000
000003FFFFFFFFFB000000
000005FFB7423FF5000000
0000028200008FE0000000
000000000002EF70000000
00000000000AFD10000000
00000000005FF500000000
0000000002EFA000000750
000000001CFD1000006F30
00000001CFF5540005F500
0000002DFFFFFF306F7000
000000AFFFA5CF7AF70000
0000007FE500AFFE500000
000000073006EFC2000000
0000000017EFFF40000000
00000006EFC8FF10000000
000001BFF70AFC00000000
00002DFD301FF800000000
0001DFD1007FF300000000
000BFD1000EFC000000000
007FF30006FF6000000000
01EF80000DFE1000000000
08FE10005FF90000000000
0DFA0000DFF20000000000
1FF70008FF900000000000
2FF7003FFE100000000000
1FFB13EFF5000000000000
0DFFFFFF80000000000000
05FFFFF700000000000000
0038A83000000000000000
ENDCHAR
STARTCHAR braceleft
ENCODING 123
SWIDTH 243 0
DWIDTH 9 0
BBX 13 35 -1 -5
BITMAP
00000000049DB0
00000001AFFF70
0000001CFFFF20
0000009FFFD800
000001FFF50000
000005FF700000
000007FF100000
000007FF000000
000006FF000000
000004FF200000
000004FF200000
000005FF100000
000007FE000000
00000CF9000000
00008FF3000000
007DFF60000000
00EFD300000000
009FF300000000
0009FB00000000
0004FE00000000
0004FD00000000
0008FB00000000
001EF600000000
008FE100000000
02FF7000000000
09FC0000000000
2FF40000000000
7FF00000000000
9FF20000000000
AFFA0000000000
8FFFB300000000
2FFFF900000000
06FFF500000000
004DF100000000
00003000000000
ENDCHAR
STARTCHAR bar
ENCODING 124
SWIDTH 253 0
DWIDTH 9 0
BBX 10 28 0 -1
BITMAP
0000000471
000000BFE0
000003FF90
000007FF50
00000AFF10
00000EFC00
00002FF800
00006FF300
00009FE000
0000DFA000
0001FF6000
0005FF2000
0008FE0000
000CFA0000
001FF60000
004FF30000
008FF00000
00CFC00000
00FF900000
04FF600000
07FF400000
0BFF100000
0EFD000000
3FFB000000
6FF8000000
AFF6000000
EFF4000000
8730000000
ENDCHAR
STARTCHAR braceright
ENCODING 125
SWIDTH 243 0
DWIDTH 9 0
BBX 14 35 -4 -5
BITMAP
000000008A3000
00000000DFF600
00000002FFFF40
00000003DFFFC0
0000000009FFF1
0000000000DFF1
0000000000AFE0
0000000000CFA0
0000000004FF30
000000000DFA00
000000007FF200
00000000EF8000
00000004FF1000
00000007FB0000
00000009FA0000
00000007FC0000
00000001EF7100
000000007FF600
00000009FFF200
0000008FE52000
000001FF600000
000007FF100000
000009FB000000
00000BF9000000
00000BF9000000
00000AFB000000
000009FC000000
000009FC000000
00000EFB000000
00008FF8000000
026BFFF3000000
0AFFFF80000000
1EFFF900000000
5FFC4000000000
24200000000000
ENDCHAR
STARTCHAR asciitilde
ENCODING 126
SWIDTH 329 0
DWIDTH 12 0
BBX 14 5 -1 10
BITMAP
015897400001A3
6EFFFFFE978DF7
FFFFDFFFFFFFF3
AE710049CFEA30
01000000000000
ENDCHAR
STARTCHAR uni00A0
ENCODING 160
SWIDTH 280 0
DWIDTH 10 0
BBX 1 1 0 0
BITMAP
00
ENDCHAR
STARTCHAR exclamdown
ENCODING 161
SWIDTH 249 0
DWIDTH 9 0
BBX 11 28 -1 -1
BITMAP
000000016610
0000005EFF90
000001FFFF60
000000DFD600
000000010000
000000000000
0000003BA000
000003FF8000
000008FF4000
00000CFF1000
00002FFC0000
00006FF90000
0000AFF60000
0000EFF20000
0003FFE00000
0007FFB00000
000BFF700000
000FFF400000
004FFF100000
008FFC000000
00CFF9000000
01FFF5000000
05FFF2000000
09FFE0000000
0EFFA0000000
3FFF70000000
7FFF50000000
6CB400000000
ENDCHAR
STARTCHAR cent
ENCODING 162
SWIDTH 322 0
DWIDTH 12 0
BBX 13 27 -1 -1
BITMAP
0000000007E300
000000000DF100
000000002FC000
00000002AFC400
0000008FFCEF40
00000AFE403FB0
0000AFE3005FE0
0006FF5008FFE0
001EFA002FFFD0
009FF3005FFF90
01EFA0003FFE20
06FF4000067200
0BFE0000000000
0EF90000000000
1FF60000000000
2FF40000000000
2FF30000000000
1FF40000000000
0EF60000057000
0AFC00004E3000
04FF7017F60000
009FFFFF600000
0007FF93000000
0003FD00000000
0007F800000000
000CF300000000
00042000000000
ENDCHAR
STARTCHAR sterling
ENCODING 163
SWIDTH 318 0
DWIDTH 11 0
BBX 15 23 -2 2
BITMAP
0000000003675000
00000001BFFFFB00
0000001DFB42AF50
0000009FB0005FA0
000002FF20007FA0
000007FB0002EF70
00000BF7049EFE10
00000EF403FFE400
00002FF100351000
00006FD000000000
0000AFA000000000
0021DF7000000000
03FFFFEDDE200000
01AEFFFFF9000000
000AFB3330000000
000EF60000000000
004FF10000000000
009FA00000000000
01EF300000000000
07FB000000000000
3FE47ABCDDB10000
BFFFFFFFFFF20000
7FDB976556900000
ENDCHAR
STARTCHAR currency
ENCODING 164
SWIDTH 347 0
DWIDTH 13 0
BBX 14 14 -1 6
BITMAP
00011000000000
000DD1000001B9
000DF815742DFA
0004FFEFFFEF90
00009FF75EF800
0000AF5009F300
0002FB000AF100
0006F6001EC000
0008F500AF5000
002DFD9CFF5000
04EFDFFFCFE100
2FF902310CFA00
2D70000002EB00
00000000002100
ENDCHAR
STARTCHAR yen
ENCODING 165
SWIDTH 326 0
DWIDTH 12 0
BBX 15 22 0 2
BITMAP
0017900000004820
009FC0000009FD00
008FD000002FF500
005FE000009FB000
003FF10002FF3000
000FF3000BF80000
000CF6006FD10000
0009FA03FF300000
0004FE2EF6000000
0000DFEF80000000
00007FFA00000000
00007FE100000000
0024CFD661000000
0BFFFFFFF5000000
1978FF7781000000
0018FE5400000000
8EFFFFFF60000000
8A9FFA9A10000000
003FF20000000000
007FE00000000000
00CFB00000000000
00AA200000000000
ENDCHAR
STARTCHAR brokenbar
ENCODING 166
SWIDTH 253 0
DWIDTH 9 0
BBX 10 28 0 -1
BITMAP
0000000471
000000BFE0
000003FFA0
000007FF50
00000AFF10
00000EFC00
00002FF800
00006FF400
00009FF000
0000DFB000
0001FF7000
0005FF3000
0001420000
0000000000
0000000000
0019800000
007FF00000
00BFC00000
00FF900000
04FF600000
07FF400000
0BFF100000
0EFD000000
3FFB000000
7FF8000000
AFF6000000
EFF4000000
7730000000
ENDCHAR
STARTCHAR section
ENCODING 167
SWIDTH 297 0
DWIDTH 11 0
BBX 15 28 -2 -1
BITMAP
0000000026884000
0000001AFB57F800
000002DF9000DF40
00000CFC0000DF70
00004FF40002FF60
00006FF1000AFE10
00004FF300299300
00000CFB00000000
000002DF80000000
0000002CF9000000
0000026BFF900000
00019FFB7EF50000
000BFE3008FC0000
006FF40005FF1000
00AFD00005FF1000
00BFC0000AFC0000
007FF2007FE30000
000CFC6CFD300000
0001CFFC60000000
00001AFC10000000
0000008FD2000000
0012000AFC000000
05EF7004FF400000
0EFA0003FF500000
1FF40007FF200000
0DF4002EF9000000
04EC45DFA0000000
0028BCA400000000
ENDCHAR
STARTCHAR dieresis
ENCODING 168
SWIDTH 567 0
DWIDTH 20 0
BBX 11 4 7 20
BITMAP
038930058600
2EFF708FFF10
5FFB10BFE700
032000021000
ENDCHAR
STARTCHAR copyright
ENCODING 169
SWIDTH 456 0
DWIDTH 16 0
BBX 18 19 0 8
BITMAP
000000000232000000
0000003AFFFFE81000
000008FFA5349FD200
0001BFC2000004FE10
000AFB0017CB206F90
007FD102CFDEC00DF1
01EF401DF908F208F5
08FB009FA03FF305F8
0DF502FF20185005FA
2FF108F900000006FA
4FE00BF300000008F8
4FD00CF10001300DF5
3FD00AF2000A203FE0
0FF106FB23B600BF70
0AF600CFFF7006FD10
03FE101673004FE300
007FD3000007FE3000
0006EFC879EFB20000
000028CEED94000000
ENDCHAR
STARTCHAR ordfeminine
ENCODING 170
SWIDTH 373 0
DWIDTH 13 0
BBX 17 20 -2 -2
BITMAP
000000004400000000
0000004DFFC0000000
000007FECFF1000000
00006FE34FD7000000
0003FF4026FF000000
000DFA0006FC000000
006FF20009F9000000
00DFB0000DF6000000
02FF70002FF2000040
06FF50008FE00008B0
08FF4006FFC0007E20
07FFA39F9FB008F400
04FFFFF90EF8CE4000
00BFFD5007FFC30000
000320000022000000
000001111100000000
2BDFFFFFFFFE500000
AFFFFFFFFFFF400000
ECA876555444000000
100000000000000000
ENDCHAR
STARTCHAR guillemotleft
ENCODING 171
SWIDTH 346 0
DWIDTH 12 0
BBX 14 15 -2 -1
BITMAP
0000004CA002BC
000004FE102EF4
00003EF302DF70
0002EF701CFA00
002DFA00BFD100
01DFD10AFE3000
0BFE308FF60000
4FFA01FFE00000
0BFF108FF40000
02FF701EFA0000
008FD006FF1000
001DF600CF7000
0004FC003FD000
00009F4009F500
00001730017300
ENDCHAR
STARTCHAR logicalnot
ENCODING 172
SWIDTH 512 0
DWIDTH 18 0
BBX 19 10 -1 5
BITMAP
00023456666665432100
04EFFFFFFFFFFFFFFF80
0EFFFFFFFFFFFFFFFFA0
2A86432210000111EF70
0000000000000002FF40
0000000000000007FE00
000000000000000CFB00
000000000000002FF500
000000000000008F9000
00000000000000110000
ENDCHAR
STARTCHAR sfthyphen
ENCODING 173
SWIDTH 353 0
DWIDTH 13 0
BBX 14 4 -1 9
BITMAP
02567888888750
1EFFFFFFFFFFF2
6FFFFEDDDCCD90
56320000000000
ENDCHAR
STARTCHAR registered
ENCODING 174
SWIDTH 456 0
DWIDTH 16 0
BBX 18 19 0 8
BITMAP
000000000232000000
0000003AFFFFE81000
000008FFA5349FD200
0001BFC2000004FE10
000AFB04AEFD306F90
007FD17FF84ED00DF1
01EF406CF209F208F5
08FB0009D00BF105F8
0DF5000DA05F9005FA
2FF1007FB7FC1006FA
4FE000DFFF910008F8
4FD000BF4E90000DF5
3FD000EB08F1003FE0
0FF105F803F710BF70
0AF60CF300DF86FD10
03FE111000375FE300
007FD3000007FE3000
0006EFC879EFB20000
000028CEED94000000
ENDCHAR
STARTCHAR macron
ENCODING 175
SWIDTH 567 0
DWIDTH 20 0
BBX 9 4 8 20
BITMAP
1577887630
9FFFFFFF90
DFEDCCDD40
1000000000
ENDCHAR
STARTCHAR degree
ENCODING 176
SWIDTH 144 0
DWIDTH 5 0
BBX 5 6 2 19
BITMAP
001100
1BFF70
9D3AF0
CC1CC0
6FFE30
013000
ENDCHAR
STARTCHAR twosuperior
ENCODING 178
SWIDTH 268 0
DWIDTH 10 0
BBX 11 18 0 9
BITMAP
0000016AA700
00005EFBFF70
0004FF30AFD0
000DF9008FE0
002FF600AFC0
000BE600EF80
00000006FF20
0000001DF800
000000AFC000
000007FE2000
00008FE30000
0009FE300000
00AFE3000000
09FD20000000
4FF9ACDB6000
6FFFFFFFF000
1EEA889DC000
011000004000
ENDCHAR
STARTCHAR threesuperior
ENCODING 179
SWIDTH 262 0
DWIDTH 9 0
BBX 11 18 0 9
BITMAP
0000059A8200
0002DFFFFF40
001DFD409FB0
005FF3006FD0
007FF1009FB0
003EF902EF60
0001100BFC00
000002CFD200
00017EFE2000
0000EFFFD100
0000410CF800
00000009F900
0011000CF700
1CF6003FF300
3FF801CFA000
0DFFBDFD1000
03DFFFB20000
000342000000
ENDCHAR
STARTCHAR acute
ENCODING 180
SWIDTH 567 0
DWIDTH 20 0
BBX 7 6 9 19
BITMAP
00002700
0005EF50
019FFF50
3DFFD500
AFD60000
12000000
ENDCHAR
STARTCHAR mu
ENCODING 181
SWIDTH 453 0
DWIDTH 16 0
BBX 22 20 -5 -7
BITMAP
0000003AD20003DE100000
000001EFD0000BFF000000
000007FF70003FFE000000
00000CFF20008FFC000000
00001FFC0000CFF8000000
00006FF70000FFF4000000
00009FF20002FFD0000062
0000DFE00003FF600002E1
0002FFC00003FF20000B90
0006FFC0000AFF30007E20
0009FFF501AFEF8007F600
000DFFFFEFF96FFBDFA000
002FFDDFFE700CFFF80000
006FF60120000055100000
00AFF30000000000000000
00EFE00000000000000000
03FF900000000000000000
08FF500000000000000000
0DFD000000000000000000
5EC2000000000000000000
ENDCHAR
STARTCHAR paragraph
ENCODING 182
SWIDTH 411 0
DWIDTH 15 0
BBX 17 28 1 -1
BITMAP
000000000162003100
000000000DF40CF200
00005ADEEFFEEFFDC0
003CFFFFFFFFFFFF60
03EFFFFFFFCAEFB300
1DFFFFFFFF40DF4000
6FFFFFFFFF11FF0000
AFFFFFFFFC05FC0000
DFFFFFFFF908F80000
DFFFFFFFF50CF50000
BFFFFFFFF10FF20000
5FFFFFFFD03FD00000
08FFFFFF906FA00000
005DFFFF509F700000
000037FF20CF300000
000004FE00FF000000
000008FA03FC000000
00000CF706F9000000
00001FF309F5000000
00004FE00DF2000000
00008FB01FE0000000
0000BF804FB0000000
0001FF408F70000000
0004FF10CF30000000
0009FC02FE00000000
000EF807F900000000
006FF50DE300000000
007840262000000000
ENDCHAR
STARTCHAR periodcentered
ENCODING 183
SWIDTH 168 0
DWIDTH 6 0
BBX 6 4 0 10
BITMAP
039CA0
4FFFF2
9FFF80
299400
ENDCHAR
STARTCHAR cedilla
ENCODING 184
SWIDTH 567 0
DWIDTH 20 0
BBX 7 9 9 -5
BITMAP
00451000
06FD0000
0CF50000
3FFCA500
3ABEFF50
0002FF80
0006FF30
16BFD400
9C950000
ENDCHAR
STARTCHAR onesuperior
ENCODING 185
SWIDTH 150 0
DWIDTH 5 0
BBX 6 17 1 10
BITMAP
000172
002DFB
00DFF9
008FF6
003FF2
006FD0
009F90
00CF60
00FF20
03FD00
07FA00
0BF600
1FF200
5FE000
9FC000
CFC000
AFC000
ENDCHAR
STARTCHAR ordmasculine
ENCODING 186
SWIDTH 319 0
DWIDTH 12 0
BBX 17 18 -3 -1
BITMAP
0000006BC920000000
00000BFFEEE3000000
00005FF704FD000000
0001EFC000DF400880
0007FFC000BF60AD10
000DFFF100BF9DD200
002FFAFC64EFFB1000
004FE0BFFFFF700000
004FD0058CFD000000
003FE0001EF7000000
001FF2009FD1000000
000BFC7BFE30000000
0002EFFFD300000000
000015640000000000
000001211000000000
05CEFFFFFFE5000000
0DFFFFFFFFF3000000
2EB976554440000000
ENDCHAR
STARTCHAR guillemotright
ENCODING 187
SWIDTH 346 0
DWIDTH 12 0
BBX 14 15 -3 -1
BITMAP
000CC000CC1000
0009F7008F8000
0002FE101FF300
0000BFA009FC00
00005FF303FF60
00000DFC00BFE1
000007FF604FF9
000006FF903FFC
00002EFC11DFD2
0001CFD10AFE30
000AFD206FF400
006FE203FF5000
03FE301DF60000
1DE400BF700000
37200273000000
ENDCHAR
STARTCHAR onequarter
ENCODING 188
SWIDTH 579 0
DWIDTH 21 0
BBX 21 28 -1 -1
BITMAP
0000006300000000001560
00001CFD0000000005EF60
0000CFFB000000003FFA00
00006FF700000000CFD100
00001FF300000008FF3000
00004FE00000004FF60000
00007FB0000001DFA00000
0000AF70000009FD100000
0000DF3000005FF4000000
0002FE000001EF80000000
0005FB00000AFC00000100
0009F700006FF20018DF50
000EF40002EF70008FFF30
003FF1000BFB0005FFFE00
008FE0007FE2003EF9FA00
00BFD002EF6002EF87F700
009FD00CFB001CFB0BF300
0000007FE201BFC11FF000
000003FF700BFD105FC000
00000CFC005FFDDEFFF900
00008FF3001EFFFEFFFA00
0004FF8000046301FF8500
001DFD1000000005FF1000
009FF50000000009FE0000
05FFB0000000000CFC0000
1EFF20000000001FFB0000
AFF800000000001FFB0000
8730000000000007820000
ENDCHAR
STARTCHAR onehalf
ENCODING 189
SWIDTH 603 0
DWIDTH 22 0
BBX 22 28 -1 -1
BITMAP
0000005400000000000460
00000AFF1000000003DF80
00009FFE000000001EFC00
00004EFA00000000AFE200
00000DF600000006FF5000
00001FF20000002EFA0000
00004FE0000000BFD10000
00007FA0000007FF300000
0000BF6000002EF7000000
0000EF300000CFB0000000
0003FE000007FE20013310
0007FA00003FF5019EFFE3
000BF60001DF901DF83DF9
001FF30008FD10BFB00AFC
005FF2004FF403FF500BFC
008FF101DF8003FF600EF9
006FE209FD100035005FF4
0000005FF400000000CFB0
000001EF9000000006FE20
00000AFE100000003FF500
00005FF500000003EF7000
0002EFB00000004EF80000
000BFF20000006FF800000
006FF80000005FF6000000
02EFD0000002FF74664000
0CFF50000009FFFFFFFC00
7FFB00000004FFFFFFFD00
7840000000007610016700
ENDCHAR
STARTCHAR threequarters
ENCODING 190
SWIDTH 669 0
DWIDTH 24 0
BBX 24 28 0 -1
BITMAP
0000059A8200000000000361
0002DFFFFF4000000003DFA0
001DFD409FB00000001DFD10
005FF3006FD00000009FF300
007FF1009FB0000004FF6000
003EF902EF6000001EFA0000
0001100BFC000000AFD10000
000002CFD2000005FF400000
00017EFE2000002EF8000000
0000EFFFD10000BFC0000000
0000410CF80006FE20000100
00000009F9002EF60006CF90
0011000CF700CFB0004FFF70
1CF6003FF307FE1002EFFF30
3FF801CFA03FF5001DFAEE00
0DFFBDFD10CFA000BFB4FA00
03DFFFB208FE1009FD18F700
000342003FF5008FE20BF400
00000001DFB008FF401FF100
00000009FE201FFEDEFFFD00
0000004FF6000CFFFEEFFE00
000001DFC000026310CFA700
00000AFF3000000001FF5000
00005FF90000000005FF3000
0001EFE10000000008FF1000
000AFF60000000000BFF0000
005FFC00000000000DFE0000
006840000000000004830000
ENDCHAR
STARTCHAR questiondown
ENCODING 191
SWIDTH 413 0
DWIDTH 15 0
BBX 18 29 -2 -2
BITMAP
000000000000028960
0000000000003EFFF5
000000000000AFFFF2
0000000000004CEC40
000000000000000000
000000000000015300
0000000000003DF600
000000000000DFF200
000000000004FFE000
000000000008FFA000
00000000000CFF6000
00000000000FFF2000
0000000027BFFD0000
0000002AFFFFE50000
000007FFFD95100000
0001CFFC4000000000
001CFF900000000000
00BFF9000000000000
06FFD0000000000000
0DFF40000000000000
4FFD00000006850000
8FF800000009FF7000
BFF400000007FFC000
CFF40000000CFFA000
9FF90000008FFF4000
3FFF93125CFFF60000
05EFFFFFFFFC300000
0018CFFFC940000000
000000100000000000
ENDCHAR
STARTCHAR Agrave
ENCODING 192
SWIDTH 552 0
DWIDTH 20 0
BBX 23 43 -4 -9
BITMAP
000000000000000028400000
0000000000000000CFFA1000
00000000000000007EFFC200
0000000000000000019FFE20
000000000000000000029F50
000000000000000000000100
000000000000000000000000
000000000000000002563000
0000000000000002BFFFF600
000000000000004EFEAEFD00
00000000000005FFB109FE00
0000000000003EFA0009FD00
000000000001DFC1000AFB00
000000000008FF30000DF800
00000000002FFA00001FF600
0000000000AFF300005FF400
0000000003FFB000008FF100
0000000009FF500000CFE000
000000001EFE000000EFC000
000000006FF8000003FF9000
00000000CFF3000006FF7000
00000002FFD0000009FF4000
00000008FF8000000CFF2000
0000000DFF3000001FFE0000
0000003FFE0000003FFC0000
0000009FF92333216FF90000
000001EFFFFFFFFFFFFB7600
0016BFFFFFFFFFFFFFFFF300
08EFFFFFD987679CFFFF6000
08854FFF80000002FFF30000
00005FFF40000004FFD00000
0000BFFE00000007FFB00000
0001FFFB00000009FF900000
0007FFF70000000BFF700000
000DFFF30000000DFF600000
003FFFE00000000FFF600000
009FFF900000001FFF600000
01EFFF400000001FFF700000
08FFFC000000001FFFA00000
3FFEA2000000000FFFE00000
553000000000000DFFF60000
0000000000000009FD830000
000000000000000230000000
ENDCHAR
STARTCHAR Aacute
ENCODING 193
SWIDTH 552 0
DWIDTH 20 0
BBX 23 43 -4 -9
BITMAP
000000000000000000002700
00000000000000000006EF40
000000000000000001AFFF30
00000000000000004DFFD400
0000000000000000CFC50000
000000000000000012000000
000000000000000000000000
000000000000000002563000
0000000000000002BFFFF600
000000000000004EFEAEFD00
00000000000005FFB109FE00
0000000000003EFA0009FD00
000000000001DFC1000AFB00
000000000008FF30000DF800
00000000002FFA00001FF600
0000000000AFF300005FF400
0000000003FFB000008FF100
0000000009FF500000CFE000
000000001EFE000000EFC000
000000006FF8000003FF9000
00000000CFF3000006FF7000
00000002FFD0000009FF4000
00000008FF8000000CFF2000
0000000DFF3000001FFE0000
0000003FFE0000003FFC0000
0000009FF92333216FF90000
000001EFFFFFFFFFFFFB7600
0016BFFFFFFFFFFFFFFFF300
08EFFFFFD987679CFFFF6000
08854FFF80000002FFF30000
00005FFF40000004FFD00000
0000BFFE00000007FFB00000
0001FFFB00000009FF900000
0007FFF70000000BFF700000
000DFFF30000000DFF600000
003FFFE00000000FFF600000
009FFF900000001FFF600000
01EFFF400000001FFF700000
08FFFC000000001FFFA00000
3FFEA2000000000FFFE00000
553000000000000DFFF60000
0000000000000009FD830000
000000000000000230000000
ENDCHAR
STARTCHAR Acircumflex
ENCODING 194
SWIDTH 552 0
DWIDTH 20 0
BBX 25 42 -4 -9
BITMAP
00000000000000000029A80000
000000000000000004EFFF4000
00000000000000006FF6DFC000
000000000000001AFE304FF800
00000000000000355100037710
00000000000000000000000000
00000000000000000256300000
0000000000000002BFFFF60000
000000000000004EFEAEFD0000
00000000000005FFB109FE0000
0000000000003EFA0009FD0000
000000000001DFC1000AFB0000
000000000008FF30000DF80000
00000000002FFA00001FF60000
0000000000AFF300005FF40000
0000000003FFB000008FF10000
0000000009FF500000CFE00000
000000001EFE000000EFC00000
000000006FF8000003FF900000
00000000CFF3000006FF700000
00000002FFD0000009FF400000
00000008FF8000000CFF200000
0000000DFF3000001FFE000000
0000003FFE0000003FFC000000
0000009FF92333216FF9000000
000001EFFFFFFFFFFFFB760000
0016BFFFFFFFFFFFFFFFF30000
08EFFFFFD987679CFFFF600000
08854FFF80000002FFF3000000
00005FFF40000004FFD0000000
0000BFFE00000007FFB0000000
0001FFFB00000009FF90000000
0007FFF70000000BFF70000000
000DFFF30000000DFF60000000
003FFFE00000000FFF60000000
009FFF900000001FFF60000000
01EFFF400000001FFF70000000
08FFFC000000001FFFA0000000
3FFEA2000000000FFFE0000000
553000000000000DFFF6000000
0000000000000009FD83000000
00000000000000023000000000
ENDCHAR
STARTCHAR Atilde
ENCODING 195
SWIDTH 552 0
DWIDTH 20 0
BBX 26 41 -4 -9
BITMAP
00000000000000038AA72001B2
000000000000007FFFFFFDCFF3
000000000000009FB569EFFE70
00000000000000130000023100
00000000000000000000000000
00000000000000000256300000
0000000000000002BFFFF60000
000000000000004EFEAEFD0000
00000000000005FFB109FE0000
0000000000003EFA0009FD0000
000000000001DFC1000AFB0000
000000000008FF30000DF80000
00000000002FFA00001FF60000
0000000000AFF300005FF40000
0000000003FFB000008FF10000
0000000009FF500000CFE00000
000000001EFE000000EFC00000
000000006FF8000003FF900000
00000000CFF3000006FF700000
00000002FFD0000009FF400000
00000008FF8000000CFF200000
0000000DFF3000001FFE000000
0000003FFE0000003FFC000000
0000009FF92333216FF9000000
000001EFFFFFFFFFFFFB760000
0016BFFFFFFFFFFFFFFFF30000
08EFFFFFD987679CFFFF600000
08854FFF80000002FFF3000000
00005FFF40000004FFD0000000
0000BFFE00000007FFB0000000
0001FFFB00000009FF90000000
0007FFF70000000BFF70000000
000DFFF30000000DFF60000000
003FFFE00000000FFF60000000
009FFF900000001FFF60000000
01EFFF400000001FFF70000000
08FFFC000000001FFFA0000000
3FFEA2000000000FFFE0000000
553000000000000DFFF6000000
0000000000000009FD83000000
00000000000000023000000000
ENDCHAR
STARTCHAR Adieresis
ENCODING 196
SWIDTH 552 0
DWIDTH 20 0
BBX 26 41 -4 -9
BITMAP
00000000000000003992005860
0000000000000002FFF709FFF1
0000000000000005FFB10BFE70
00000000000000003200002000
00000000000000000000000000
00000000000000000256300000
0000000000000002BFFFF60000
000000000000004EFEAEFD0000
00000000000005FFB109FE0000
0000000000003EFA0009FD0000
000000000001DFC1000AFB0000
000000000008FF30000DF80000
00000000002FFA00001FF60000
0000000000AFF300005FF40000
0000000003FFB000008FF10000
0000000009FF500000CFE00000
000000001EFE000000EFC00000
000000006FF8000003FF900000
00000000CFF3000006FF700000
00000002FFD0000009FF400000
00000008FF8000000CFF200000
0000000DFF3000001FFE000000
0000003FFE0000003FFC000000
0000009FF92333216FF9000000
000001EFFFFFFFFFFFFB760000
0016BFFFFFFFFFFFFFFFF30000
08EFFFFFD987679CFFFF600000
08854FFF80000002FFF3000000
00005FFF40000004FFD0000000
0000BFFE00000007FFB0000000
0001FFFB00000009FF90000000
0007FFF70000000BFF70000000
000DFFF30000000DFF60000000
003FFFE00000000FFF60000000
009FFF900000001FFF60000000
01EFFF400000001FFF70000000
08FFFC000000001FFFA0000000
3FFEA2000000000FFFE0000000
553000000000000DFFF6000000
0000000000000009FD83000000
00000000000000023000000000
ENDCHAR
STARTCHAR Aring
ENCODING 197
SWIDTH 552 0
DWIDTH 20 0
BBX 22 40 -4 -9
BITMAP
0000000000000000002540
000000000000000004EEF8
00000000000000000DB0CC
00000000000000000DC5E8
000000000000000007FFC0
0000000000000002BFFFF6
000000000000004EFEAEFD
00000000000004FFB109FE
0000000000003EFA0009FD
000000000000CFC1000AFB
000000000008FF30000DF8
00000000002FFA00001FF6
0000000000AFF300005FF4
0000000003FFB000008FF1
0000000009FF500000CFE0
000000001EFE000000EFC0
000000006FF8000003FF90
00000000CFF3000006FF70
00000002FFD0000009FF40
00000008FF8000000CFF20
0000000DFF3000001FFE00
0000003FFE0000003FFC00
0000009FF92333216FF900
000001EFFFFFFFFFFFFB76
0016BFFFFFFFFFFFFFFFF3
08EFFFFFD987679CFFFF60
08854FFF80000002FFF300
00005FFF40000004FFD000
0000BFFE00000007FFB000
0001FFFB00000009FF9000
0007FFF70000000BFF7000
000DFFF30000000DFF6000
003FFFE00000000FFF6000
009FFF900000001FFF6000
01EFFF400000001FFF7000
08FFFC000000001FFFA000
3FFEA2000000000FFFE000
553000000000000DFFF600
0000000000000009FD8300
0000000000000002300000
ENDCHAR
STARTCHAR AE
ENCODING 198
SWIDTH 869 0
DWIDTH 31 0
BBX 36 36 -4 -9
BITMAP
000000000000000002563000000046774000
0000000000000002BFFFF60003AEFFFFFC20
000000000000004EFEAEFD019FFFA534CFD1
00000000000005FFB108FE2DFFC300003FF8
0000000000003EFA0009FEEFFB1000001FFC
000000000001DFC1000AFFFFD10000002FFC
000000000008FF30000DFFFF400000006FFA
00000000002FFA00001FFFFB00000000CFF6
0000000000AFF300005FFFF600000008FFE1
0000000003FFB000008FFFF30000006FFF80
0000000009FF500000CFFFF2000004EFFC10
000000001EFE000000EFFFF2000000167100
000000006FF8000003FFFFF4000000000000
00000000CFF3000006FFFFF9000000000000
00000002FFD0000009FFDFFF200000000000
00000008FF8000000CFF2CFFC10000000000
0000000DFF3000001FFE009FFEEFC2000000
0000003FFE0000003FFB17DFFFFFF2000000
0000009FF92333216FFDEFF945BB50000000
000001EFFFFFFFFFFFFFFD30000000000000
0016BFFFFFFFFFFFFFFFD200000000000000
08EFFFFFD987679CFFFF4000000000000000
08854FFF80000002FFFB0000000000000000
00005FFF40000004FFF50000000000003000
0000BFFE00000007FFF3000000000006C000
0001FFFB00000009FFF300000000001D8000
0007FFF70000000BFFF500000000008F2000
000DFFF30000000DFFF80000000004FA0000
003FFFE00000000FFFFE100000003EF20000
009FFF900000001FFFFFA0000005EF600000
01EFFF400000001FFFFFFC5214AFF9000000
08FFFC000000001FFFFFFFFFFFFF80000000
3FFEA2000000000FFFFAFFFFFFC400000000
553000000000000DFFF71578630000000000
0000000000000009FD830000000000000000
000000000000000230000000000000000000
ENDCHAR
STARTCHAR Ccedilla
ENCODING 199
SWIDTH 548 0
DWIDTH 20 0
BBX 20 41 0 -14
BITMAP
00000000000047884000
00000000007EFFFFFC20
000000003CFFD648FFC0
00000004EFF900009FF5
0000004FFF8000006FFA
000002EFFA0000006FFD
00000CFFD10000008FFE
00006FFF50000000BFFD
0001EFFB00000001FFFB
0008FFF400000008FFF8
001EFFC00000005FFFF2
007FFF60000000DFFFB0
00DFFE100000003EFB10
03FFFA00000000002000
08FFF500000000000000
0DFFF100000000000000
1FFFC000000000000000
5FFF9000000000000000
8FFF6000000000000000
AFFF3000000000000000
CFFF1000000000000000
EFFF0000000000000000
FFFE0000000000000000
FFFC0000000000000000
EFFC0000000000000000
CFFD0000000000070000
AFFF00000000007F1000
6FFF3000000003F90000
1EFF900000003EE10000
08FFF3000006EF400000
01DFFE6225BFF6000000
003EFFFFFFFF60000000
0002BFFFFFC300000000
000007FE730000000000
00000BF7000000000000
00002FF9730000000000
00004DDFFF4000000000
00000004FF8000000000
00000005FF4000000000
0000049FE50000000000
0000AEB7100000000000
ENDCHAR
STARTCHAR Egrave
ENCODING 200
SWIDTH 523 0
DWIDTH 19 0
BBX 22 41 -2 -7
BITMAP
0000000000000283000000
0000000000000DFF800000
00000000000009FFFC1000
0000000000000029FFD100
00000000000000002AF300
0000000000000000001000
0000000000000000000000
0000000000000157761000
000000000006CFFFFFF700
0000000004DFFD8437FF70
000000008FFF700000AFE1
00000009FFF50000008FF5
0000006FFF600000009FF5
000002EFFB00000000DFF3
000009FFF400000004FFE0
00000EFFE00000001DFF80
00003FFFA0000001CFFF20
00004FFF9000000BFFF600
00005FFF90000000474000
00002FFFB0000000000000
00000BFFF1000000000000
000003EFF9000000000000
0000004FFF600000000000
00000003DFFDFE80000000
0000003AFFFFFF90000000
000019FFD638CA10000000
0002DFF800000000000000
001DFF8000000000000000
00AFFC0000000000000000
03FFF40000000000000000
0AFFE00000000000021000
0EFFB000000000000D5000
0FFFB000000000006F1000
1FFFD00000000002EB0000
0EFFF1000000000BF40000
0BFFF800000000AFA00000
04FFFF4000001AFD100000
00AFFFF93127EFE3000000
000AFFFFFFFFFD30000000
00006DFFFFFE9100000000
0000003687510000000000
ENDCHAR
STARTCHAR Eacute
ENCODING 201
SWIDTH 523 0
DWIDTH 19 0
BBX 22 41 -2 -7
BITMAP
0000000000000000005400
00000000000000001AFD00
0000000000000003DFFD00
000000000000008FFFA100
00000000000002FFA30000
0000000000000021000000
0000000000000000000000
0000000000000157761000
000000000006CFFFFFF700
0000000004DFFD8437FF70
000000008FFF700000AFE1
00000009FFF50000008FF5
0000006FFF600000009FF5
000002EFFB00000000DFF3
000009FFF400000004FFE0
00000EFFE00000001DFF80
00003FFFA0000001CFFF20
00004FFF9000000BFFF600
00005FFF90000000474000
00002FFFB0000000000000
00000BFFF1000000000000
000003EFF9000000000000
0000004FFF600000000000
00000003DFFDFE80000000
0000003AFFFFFF90000000
000019FFD638CA10000000
0002DFF800000000000000
001DFF8000000000000000
00AFFC0000000000000000
03FFF40000000000000000
0AFFE00000000000021000
0EFFB000000000000D5000
0FFFB000000000006F1000
1FFFD00000000002EB0000
0EFFF1000000000BF40000
0BFFF800000000AFA00000
04FFFF4000001AFD100000
00AFFFF93127EFE3000000
000AFFFFFFFFFD30000000
00006DFFFFFE9100000000
0000003687510000000000
ENDCHAR
STARTCHAR Ecircumflex
ENCODING 202
SWIDTH 523 0
DWIDTH 19 0
BBX 22 40 -2 -7
BITMAP
00000000000000004AA400
0000000000000008FFFD00
00000000000001BFD6FF70
0000000000003DFB109FE3
0000000000004540000575
0000000000000000000000
0000000000000157761000
000000000006CFFFFFF700
0000000004DFFD8437FF70
000000008FFF700000AFE1
00000009FFF50000008FF5
0000006FFF600000009FF5
000002EFFB00000000DFF3
000009FFF400000004FFE0
00000EFFE00000001DFF80
00003FFFA0000001CFFF20
00004FFF9000000BFFF600
00005FFF90000000474000
00002FFFB0000000000000
00000BFFF1000000000000
000003EFF9000000000000
0000004FFF600000000000
00000003DFFDFE80000000
0000003AFFFFFF90000000
000019FFD638CA10000000
0002DFF800000000000000
001DFF8000000000000000
00AFFC0000000000000000
03FFF40000000000000000
0AFFE00000000000021000
0EFFB000000000000D5000
0FFFB000000000006F1000
1FFFD00000000002EB0000
0EFFF1000000000BF40000
0BFFF800000000AFA00000
04FFFF4000001AFD100000
00AFFFF93127EFE3000000
000AFFFFFFFFFD30000000
00006DFFFFFE9100000000
0000003687510000000000
ENDCHAR
STARTCHAR Edieresis
ENCODING 203
SWIDTH 523 0
DWIDTH 19 0
BBX 22 39 -2 -7
BITMAP
0000000000000499200685
0000000000003FFF50AFFE
0000000000006FFA00DFE6
0000000000000320001200
0000000000000000000000
0000000000000157761000
000000000006CFFFFFF700
0000000004DFFD8437FF70
000000008FFF700000AFE1
00000009FFF50000008FF5
0000006FFF600000009FF5
000002EFFB00000000DFF3
000009FFF400000004FFE0
00000EFFE00000001DFF80
00003FFFA0000001CFFF20
00004FFF9000000BFFF600
00005FFF90000000474000
00002FFFB0000000000000
00000BFFF1000000000000
000003EFF9000000000000
0000004FFF600000000000
00000003DFFDFE80000000
0000003AFFFFFF90000000
000019FFD638CA10000000
0002DFF800000000000000
001DFF8000000000000000
00AFFC0000000000000000
03FFF40000000000000000
0AFFE00000000000021000
0EFFB000000000000D5000
0FFFB000000000006F1000
1FFFD00000000002EB0000
0EFFF1000000000BF40000
0BFFF800000000AFA00000
04FFFF4000001AFD100000
00AFFFF93127EFE3000000
000AFFFFFFFFFD30000000
00006DFFFFFE9100000000
0000003687510000000000
ENDCHAR
STARTCHAR Igrave
ENCODING 204
SWIDTH 537 0
DWIDTH 19 0
BBX 22 41 -3 -7
BITMAP
0000000000000004820000
000000000000002FFE6000
000000000000001BFFF900
00000000000000004BFFA0
0000000000000000004CE0
0000000000000000000010
0000000000000000000000
0000000000000000146200
0000000000000018EFFE20
00000000000003DFFBFF60
0000000000003EFF80EF80
000000000001DFFA01FF80
000000000008FFE103FF70
00000000001EFF7005FF60
00000000006FFF2008FF50
0000000000AFFC000BFF40
0000000000CFF9000EFF10
0000000000DFF6003FFE00
0000000000DFF4006FFC00
0000000000CFF200AFF900
0000000000AFF100EFF500
00000000007FF203FFF200
00000000003FF507FFD000
00000000000DF80BFF9000
000000000005E20EFF5000
000000000000004FFF1000
00000000002457BFFE8764
00000048CEFFFFFFFFFFFC
00007DFFFFFEBAFFF43220
003DFFFE951006FFB00000
04EFFE7100000BFF500000
1EFFD20000001FFE000000
6FFF400000005FF8000000
AFFF00000000BFF2000000
9FFF10000002FFA0000000
5FFF50000009FF20000000
0CFFD100002FF800000000
03FFFB1000BFC000000000
004EFFE74BFD2000000000
0002BFFFFFC20000000000
0000026885000000000000
ENDCHAR
STARTCHAR Iacute
ENCODING 205
SWIDTH 537 0
DWIDTH 19 0
BBX 22 41 -3 -7
BITMAP
0000000000000000000054
00000000000000000019FE
000000000000000003DFFD
00000000000000007FFFA2
0000000000000002FFA300
0000000000000000210000
0000000000000000000000
0000000000000000146200
0000000000000018EFFE20
00000000000003DFFBFF60
0000000000003EFF80EF80
000000000001DFFA01FF80
000000000008FFE103FF70
00000000001EFF7005FF60
00000000006FFF2008FF50
0000000000AFFC000BFF40
0000000000CFF9000EFF10
0000000000DFF6003FFE00
0000000000DFF4006FFC00
0000000000CFF200AFF900
0000000000AFF100EFF500
00000000007FF203FFF200
00000000003FF507FFD000
00000000000DF80BFF9000
000000000005E20EFF5000
000000000000004FFF1000
00000000002457BFFE8764
00000048CEFFFFFFFFFFFC
00007DFFFFFEBAFFF43220
003DFFFE951006FFB00000
04EFFE7100000BFF500000
1EFFD20000001FFE000000
6FFF400000005FF8000000
AFFF00000000BFF2000000
9FFF10000002FFA0000000
5FFF50000009FF20000000
0CFFD100002FF800000000
03FFFB1000BFC000000000
004EFFE74BFD2000000000
0002BFFFFFC20000000000
0000026885000000000000
ENDCHAR
STARTCHAR Icircumflex
ENCODING 206
SWIDTH 537 0
DWIDTH 19 0
BBX 25 40 -3 -7
BITMAP
00000000000000000019A80000
000000000000000003DFFF5000
00000000000000006FF7CFD100
0000000000000009FE403FF900
00000000000000255100037710
00000000000000000000000000
00000000000000001462000000
0000000000000018EFFE200000
00000000000003DFFBFF600000
0000000000003EFF80EF800000
000000000001DFFA01FF800000
000000000008FFE103FF700000
00000000001EFF7005FF600000
00000000006FFF2008FF500000
0000000000AFFC000BFF400000
0000000000CFF9000EFF100000
0000000000DFF6003FFE000000
0000000000DFF4006FFC000000
0000000000CFF200AFF9000000
0000000000AFF100EFF5000000
00000000007FF203FFF2000000
00000000003FF507FFD0000000
00000000000DF80BFF90000000
000000000005E20EFF50000000
000000000000004FFF10000000
00000000002457BFFE87640000
00000048CEFFFFFFFFFFFC0000
00007DFFFFFEBAFFF432200000
003DFFFE951006FFB000000000
04EFFE7100000BFF5000000000
1EFFD20000001FFE0000000000
6FFF400000005FF80000000000
AFFF00000000BFF20000000000
9FFF10000002FFA00000000000
5FFF50000009FF200000000000
0CFFD100002FF8000000000000
03FFFB1000BFC0000000000000
004EFFE74BFD20000000000000
0002BFFFFFC200000000000000
00000268850000000000000000
ENDCHAR
STARTCHAR Idieresis
ENCODING 207
SWIDTH 537 0
DWIDTH 19 0
BBX 25 39 -3 -7
BITMAP
00000000000000039920058600
000000000000002FFF709FFF10
000000000000005FFB10BFE700
00000000000000032000020000
00000000000000000000000000
00000000000000001462000000
0000000000000018EFFE200000
00000000000003DFFBFF600000
0000000000003EFF80EF800000
000000000001DFFA01FF800000
000000000008FFE103FF700000
00000000001EFF7005FF600000
00000000006FFF2008FF500000
0000000000AFFC000BFF400000
0000000000CFF9000EFF100000
0000000000DFF6003FFE000000
0000000000DFF4006FFC000000
0000000000CFF200AFF9000000
0000000000AFF100EFF5000000
00000000007FF203FFF2000000
00000000003FF507FFD0000000
00000000000DF80BFF90000000
000000000005E20EFF50000000
000000000000004FFF10000000
00000000002457BFFE87640000
00000048CEFFFFFFFFFFFC0000
00007DFFFFFEBAFFF432200000
003DFFFE951006FFB000000000
04EFFE7100000BFF5000000000
1EFFD20000001FFE0000000000
6FFF400000005FF80000000000
AFFF00000000BFF20000000000
9FFF10000002FFA00000000000
5FFF50000009FF200000000000
0CFFD100002FF8000000000000
03FFFB1000BFC0000000000000
004EFFE74BFD20000000000000
0002BFFFFFC200000000000000
00000268850000000000000000
ENDCHAR
STARTCHAR Eth
ENCODING 208
SWIDTH 632 0
DWIDTH 23 0
BBX 23 34 -1 -7
BITMAP
000000000367641000000000
00000018EFFFFFFB40000000
000005EFFFFFFFFFFB100000
00001FFFFB7545AFFFD20000
00001FF920000002CFFD0000
00000C30000000001DFF8000
000000028E80000005FFF200
0000003FFF70000000DFF800
0000005FFF500000009FFD00
0000007FFF200000006FFF20
000000AFFE000000004FFF50
000000CFFB000000003FFF60
000000EFF8000000003FFF70
000002FFF5000000004FFF70
000005FFF1000000005FFF70
02457BFFE7663000007FFF50
4FFFFFFFFFFFC00000AFFF30
BFFFFFFFEEEE500000DFFE00
97433FFF2000000001FFFB00
00005FFD0000000006FFF600
00009FF9000000000BFFF100
0000CFF5000000002FFF9000
0001FFF1000000008FFF2000
0005FFC000000001EFF90000
0009FF7000000009FFE10000
000DFF300000004FFF600000
003FFE00000001DFFA000000
008FFA0000000BFFD1000000
00DFF5000001BFFE20000000
04FFF100002CFFD200000000
1EFFE10028FFFC1000000000
1CFFFEBCFFFE700000000000
007EFFFFFE81000000000000
000158863000000000000000
ENDCHAR
STARTCHAR Ntilde
ENCODING 209
SWIDTH 541 0
DWIDTH 19 0
BBX 25 38 -2 -7
BITMAP
0000000000049AA61002B10000
00000000009FFFFFFCCFF10000
0000000000BFA56AEFFE600000
00000000001200000231000000
00000000000000000000278300
00000004BE4000000007FFFF30
0000003FFF800000006FFFFF90
0000007FFF90000001EFF92FB0
000000AFFFB0000007FFC01FA0
000000EFFFC000000CFF504F90
000002FFFFD000001FFE00BF50
000006FFDFE000005FFA04FE10
000009FD9FF000009FF62EF600
00000CFA7FF10000DFF5DFA000
00001FF75FF20274FFFFFA0000
00004FF34FF201BFFFFE600000
00008FE03FF20007FFA0000000
0000CFC01FF30008FF60000000
0001FF801FF3000AFF30000000
0004FF500FF3000CFF00000000
0008FF200EF4000EFD00000000
000CFE000EF5002FFA00000000
001FFC000DF6004FF800000000
004FF9000DF7007FF500000000
008FF6000CF800AFF200000000
00CFF3000BF900DFF000000000
00FFF1000AFB01FFC000000000
04FFE00009FC04FF9000000000
07FFB00008FE08FF6000000000
0BFFA00006FF1BFF2000000000
0EFF800004FF5EFE0000000000
2FFF800002FFBFFA0000000000
4FFF800000DFFFF60000000000
6FFF800000AFFFF20000000000
7FFF9000006FFFE00000000000
6FFFC000002FFFA00000000000
1EFFC0000009FE300000000000
01530000000041000000000000
ENDCHAR
STARTCHAR Ograve
ENCODING 210
SWIDTH 567 0
DWIDTH 20 0
BBX 19 41 0 -7
BITMAP
00000000000283000000
00000000000DFF800000
000000000009FFFC1000
00000000000029FFD100
000000000000002AF300
00000000000000001000
00000000000000000000
00000000018CB4310000
000000003DFFFFFE4000
00000004EFFFFBFFE100
0000002EFFDD308FF700
000001DFF953002FFC00
000008FFC000000EFF10
00003FFF3000000CFF30
0000BFFA0000000AFF50
0003FFF200000009FF70
000AFFA000000009FF80
002FFF4000000008FF80
007FFD0000000008FF90
00CFF80000000009FF90
02FFF30000000009FF80
06FFE0000000000BFF70
0AFFB0000000000DFF60
0DFF80000000000FFF40
1FFF50000000002FFF20
3FFF30000000005FFE00
5FFF10000000008FFB00
7FFE0000000000BFF700
9FFD0000000001FFF300
9FFC0000000005FFD000
AFFB000000000AFF8000
9FFB000000001FFF2000
9FFB000000008FFB0000
7FFC00000001EFF40000
5FFE00000008FFB00000
1FFF1000002FFE200000
0BFF500001DFF7000000
05FFB0001BFF90000000
00AFF936DFF900000000
001BFFFFFE6000000000
00006BDB710000000000
ENDCHAR
STARTCHAR Oacute
ENCODING 211
SWIDTH 567 0
DWIDTH 20 0
BBX 19 41 0 -7
BITMAP
00000000000000036000
000000000000007FF200
0000000000001BFFE200
000000000005EFFC3000
00000000000DFB500000
00000000000120000000
00000000000000000000
00000000018CB4310000
000000003DFFFFFE4000
00000004EFFFFBFFE100
0000002EFFDD308FF700
000001DFF953002FFC00
000008FFC000000EFF10
00003FFF3000000CFF30
0000BFFA0000000AFF50
0003FFF200000009FF70
000AFFA000000009FF80
002FFF4000000008FF80
007FFD0000000008FF90
00CFF80000000009FF90
02FFF30000000009FF80
06FFE0000000000BFF70
0AFFB0000000000DFF60
0DFF80000000000FFF40
1FFF50000000002FFF20
3FFF30000000005FFE00
5FFF10000000008FFB00
7FFE0000000000BFF700
9FFD0000000001FFF300
9FFC0000000005FFD000
AFFB000000000AFF8000
9FFB000000001FFF2000
9FFB000000008FFB0000
7FFC00000001EFF40000
5FFE00000008FFB00000
1FFF1000002FFE200000
0BFF500001DFF7000000
05FFB0001BFF90000000
00AFF936DFF900000000
001BFFFFFE6000000000
00006BDB710000000000
ENDCHAR
STARTCHAR Ocircumflex
ENCODING 212
SWIDTH 567 0
DWIDTH 20 0
BBX 19 40 0 -7
BITMAP
00000000000005AA3000
0000000000009FFFC000
00000000001CFC6FF600
0000000004EFA10BFE20
00000000055400006740
00000000000000000000
00000000018CB4310000
000000003DFFFFFE4000
00000004EFFFFBFFE100
0000002EFFDD308FF700
000001DFF953002FFC00
000008FFC000000EFF10
00003FFF3000000CFF30
0000BFFA0000000AFF50
0003FFF200000009FF70
000AFFA000000009FF80
002FFF4000000008FF80
007FFD0000000008FF90
00CFF80000000009FF90
02FFF30000000009FF80
06FFE0000000000BFF70
0AFFB0000000000DFF60
0DFF80000000000FFF40
1FFF50000000002FFF20
3FFF30000000005FFE00
5FFF10000000008FFB00
7FFE0000000000BFF700
9FFD0000000001FFF300
9FFC0000000005FFD000
AFFB000000000AFF8000
9FFB000000001FFF2000
9FFB000000008FFB0000
7FFC00000001EFF40000
5FFE00000008FFB00000
1FFF1000002FFE200000
0BFF500001DFF7000000
05FFB0001BFF90000000
00AFF936DFF900000000
001BFFFFFE6000000000
00006BDB710000000000
ENDCHAR
STARTCHAR Otilde
ENCODING 213
SWIDTH 567 0
DWIDTH 20 0
BBX 20 39 0 -7
BITMAP
00000000049AA61002B1
000000009FFFFFFCCFF1
00000000BFA56AEFFE60
00000000120000023100
00000000000000000000
00000000018CB4310000
000000003DFFFFFE4000
00000004EFFFFBFFE100
0000002EFFDD308FF700
000001DFF953002FFC00
000008FFC000000EFF10
00003FFF3000000CFF30
0000BFFA0000000AFF50
0003FFF200000009FF70
000AFFA000000009FF80
002FFF4000000008FF80
007FFD0000000008FF90
00CFF80000000009FF90
02FFF30000000009FF80
06FFE0000000000BFF70
0AFFB0000000000DFF60
0DFF80000000000FFF40
1FFF50000000002FFF20
3FFF30000000005FFE00
5FFF10000000008FFB00
7FFE0000000000BFF700
9FFD0000000001FFF300
9FFC0000000005FFD000
AFFB000000000AFF8000
9FFB000000001FFF2000
9FFB000000008FFB0000
7FFC00000001EFF40000
5FFE00000008FFB00000
1FFF1000002FFE200000
0BFF500001DFF7000000
05FFB0001BFF90000000
00AFF936DFF900000000
001BFFFFFE6000000000
00006BDB710000000000
ENDCHAR
STARTCHAR Odieresis
ENCODING 214
SWIDTH 567 0
DWIDTH 20 0
BBX 19 39 0 -7
BITMAP
00000000004981016840
0000000005FFF40BFFD0
0000000008FF900EFE50
00000000013100012000
00000000000000000000
00000000018CB4310000
000000003DFFFFFE4000
00000004EFFFFBFFE100
0000002EFFDD308FF700
000001DFF953002FFC00
000008FFC000000EFF10
00003FFF3000000CFF30
0000BFFA0000000AFF50
0003FFF200000009FF70
000AFFA000000009FF80
002FFF4000000008FF80
007FFD0000000008FF90
00CFF80000000009FF90
02FFF30000000009FF80
06FFE0000000000BFF70
0AFFB0000000000DFF60
0DFF80000000000FFF40
1FFF50000000002FFF20
3FFF30000000005FFE00
5FFF10000000008FFB00
7FFE0000000000BFF700
9FFD0000000001FFF300
9FFC0000000005FFD000
AFFB000000000AFF8000
9FFB000000001FFF2000
9FFB000000008FFB0000
7FFC00000001EFF40000
5FFE00000008FFB00000
1FFF1000002FFE200000
0BFF500001DFF7000000
05FFB0001BFF90000000
00AFF936DFF900000000
001BFFFFFE6000000000
00006BDB710000000000
ENDCHAR
STARTCHAR multiply
ENCODING 215
SWIDTH 281 0
DWIDTH 10 0
BBX 13 14 -1 5
BITMAP
00277000005300
008FF60009FF60
000DFB007FF900
0007FE05FFA000
0002FF8FFB0000
0000DFFFB10000
00008FFC100000
0001CFF2000000
000AFFF5000000
009FDBFA000000
07FE25FE100000
5FE301EF900000
BE30005FB00000
02000002200000
ENDCHAR
STARTCHAR Oslash
ENCODING 216
SWIDTH 597 0
DWIDTH 22 0
BBX 23 36 -1 -8
BITMAP
000000000000000000002520
000000000004BD73202CFF30
00000000009FFFFFFADFF800
000000000BFFFFDDFFFFE100
00000000AFFDF701EFFF5000
00000006FFE28000BFFB0000
0000002EFF500002FFF70000
000000BFFA00000AFFFA0000
000004FFF200003FFFFC0000
00000BFF800000CFFFFE0000
00003FFF200005FFDFFF0000
00009FFA00000DFF5FFF0000
0001EFF400007FFA2FFF1000
0005FFE00001EFF22FFF1000
0009FFA00008FF803FFF0000
000DFF50002FFD104FFE0000
002FFF2000AFF6006FFD0000
006FFE0003FFC0008FFB0000
009FFB000BFF4000AFF90000
00BFF9005FFA0000DFF60000
00DFF700DFF20001FFF30000
00FFF506FF900005FFE00000
01FFF41EFF200009FFA00000
02FFF38FF900000EFF600000
03FFF5FFE100004FFF100000
03FFFCFF800000AFF9000000
02FFFFFE100002FFF3000000
00FFFFF8000008FFB0000000
00DFFFE100002FFF30000000
009FFF800000AFF800000000
008FFF100007FFC000000000
01EFFF30005FFE2000000000
08FFFFD549FFE30000000000
2FFFCFFFFFFB200000000000
AFFE329CC940000000000000
785100000000000000000000
ENDCHAR
STARTCHAR Ugrave
ENCODING 217
SWIDTH 574 0
DWIDTH 21 0
BBX 22 40 0 -7
BITMAP
0000000000028300000000
00000000000DFF80000000
000000000009FFFC100000
00000000000029FFD10000
000000000000002AF30000
0000000000000000100000
0000000000000000000010
00000016AC300000008EFE
000002EFFE00000005FFFA
000008FFF800000009FFF4
00000DFFF20000000DFFE0
00002FFFC00000002FFF90
00007FFF600000006FFF40
0000BFFF10000000AFFE00
0001FFFB00000000EFFA00
0004FFF600000003FFF600
0009FFF100000007FFF100
000DFFC00000000BFFC000
001FFF700000000EFF7000
005FFF300000003FFF3000
009FFE000000006FFD0000
00CFF900000000AFF90000
01FFF500000000DFF50000
04FFF100000001FFF10000
07FFC000000005FFC00000
0AFF8000000008FF900000
0CFF500000000BFF600000
0FFF200000001FFF300000
3FFE000000005FFF100000
5FFC00000000AFFE000000
7FFA00000001FFFC000000
8FF900000007FFFA000000
9FF80000000DFFF9000000
9FFA0000007FFFF7000000
8FFC000002EFEFF7000000
6FFF20001CFD7FF7000000
3FFFB102CFE35FF9000000
0BFFFFEFFE403FFC000000
01BFFFFFB2000BFF200000
0004787300000031000000
ENDCHAR
STARTCHAR Uacute
ENCODING 218
SWIDTH 574 0
DWIDTH 21 0
BBX 22 40 0 -7
BITMAP
0000000000000000054000
00000000000000019FE000
000000000000003DFFD000
00000000000007FFFA2000
0000000000002FFA300000
0000000000000210000000
0000000000000000000010
00000016AC300000008EFE
000002EFFE00000005FFFA
000008FFF800000009FFF4
00000DFFF20000000DFFE0
00002FFFC00000002FFF90
00007FFF600000006FFF40
0000BFFF10000000AFFE00
0001FFFB00000000EFFA00
0004FFF600000003FFF600
0009FFF100000007FFF100
000DFFC00000000BFFC000
001FFF700000000EFF7000
005FFF300000003FFF3000
009FFE000000006FFD0000
00CFF900000000AFF90000
01FFF500000000DFF50000
04FFF100000001FFF10000
07FFC000000005FFC00000
0AFF8000000008FF900000
0CFF500000000BFF600000
0FFF200000001FFF300000
3FFE000000005FFF100000
5FFC00000000AFFE000000
7FFA00000001FFFC000000
8FF900000007FFFA000000
9FF80000000DFFF9000000
9FFA0000007FFFF7000000
8FFC000002EFEFF7000000
6FFF20001CFD7FF7000000
3FFFB102CFE35FF9000000
0BFFFFEFFE403FFC000000
01BFFFFFB2000BFF200000
0004787300000031000000
ENDCHAR
STARTCHAR Ucircumflex
ENCODING 219
SWIDTH 574 0
DWIDTH 21 0
BBX 22 40 0 -7
BITMAP
000000000000004AA40000
00000000000008FFFD0000
000000000001BFD6FF7000
00000000003DFB109FE300
0000000000454000057500
0000000000000000000000
0000000000000000000010
00000016AC300000008EFE
000002EFFE00000005FFFA
000008FFF800000009FFF4
00000DFFF20000000DFFE0
00002FFFC00000002FFF90
00007FFF600000006FFF40
0000BFFF10000000AFFE00
0001FFFB00000000EFFA00
0004FFF600000003FFF600
0009FFF100000007FFF100
000DFFC00000000BFFC000
001FFF700000000EFF7000
005FFF300000003FFF3000
009FFE000000006FFD0000
00CFF900000000AFF90000
01FFF500000000DFF50000
04FFF100000001FFF10000
07FFC000000005FFC00000
0AFF8000000008FF900000
0CFF500000000BFF600000
0FFF200000001FFF300000
3FFE000000005FFF100000
5FFC00000000AFFE000000
7FFA00000001FFFC000000
8FF900000007FFFA000000
9FF80000000DFFF9000000
9FFA0000007FFFF7000000
8FFC000002EFEFF7000000
6FFF20001CFD7FF7000000
3FFFB102CFE35FF9000000
0BFFFFEFFE403FFC000000
01BFFFFFB2000BFF200000
0004787300000031000000
ENDCHAR
STARTCHAR Udieresis
ENCODING 220
SWIDTH 574 0
DWIDTH 21 0
BBX 22 39 0 -7
BITMAP
0000000000069700278200
00000000009FFF02EFF900
0000000000CFE603FFC200
0000000000131000220000
0000000000000000000000
0000000000000000000010
00000016AC300000008EFE
000002EFFE00000005FFFA
000008FFF800000009FFF4
00000DFFF20000000DFFE0
00002FFFC00000002FFF90
00007FFF600000006FFF40
0000BFFF10000000AFFE00
0001FFFB00000000EFFA00
0004FFF600000003FFF600
0009FFF100000007FFF100
000DFFC00000000BFFC000
001FFF700000000EFF7000
005FFF300000003FFF3000
009FFE000000006FFD0000
00CFF900000000AFF90000
01FFF500000000DFF50000
04FFF100000001FFF10000
07FFC000000005FFC00000
0AFF8000000008FF900000
0CFF500000000BFF600000
0FFF200000001FFF300000
3FFE000000005FFF100000
5FFC00000000AFFE000000
7FFA00000001FFFC000000
8FF900000007FFFA000000
9FF80000000DFFF9000000
9FFA0000007FFFF7000000
8FFC000002EFEFF7000000
6FFF20001CFD7FF7000000
3FFFB102CFE35FF9000000
0BFFFFEFFE403FFC000000
01BFFFFFB2000BFF200000
0004787300000031000000
ENDCHAR
STARTCHAR Yacute
ENCODING 221
SWIDTH 532 0
DWIDTH 19 0
BBX 21 40 0 -7
BITMAP
0000000000000001710000
000000000000003DF70000
00000000000007FFF70000
000000000002CFFE600000
000000000008FD71000000
0000000000002000000000
0000000230000000004510
000008EFF20000003EFF70
00002FFFB00000008FFF20
00006FFF50000000CFFC00
0000BFFE00000000FFF800
0000EFF900000004FFF300
0004FFF400000007FFE000
0008FFE00000000AFFA000
000CFF900000000DFF5000
001FFF400000002FFF1000
005FFF100000005FFC0000
008FFB000000009FF90000
00BFF700000000DFF50000
00EFF300000003FFF10000
03FFE000000009FFC00000
05FFB00000001EFF900000
08FF800000007FFF500000
0AFF50000001EFFF100000
0CFF40000009FFFC000000
0CFF4000005FECF9000000
0BFF800005FF5EF5000000
08FFF7349FF73FF1000000
02EFFFFFFF608FD0000000
004DFFFFA200DF90000000
000034310003FF40000000
00000000000AFE00000000
00000000002FF900000000
0000000000AFF200000000
02C6000006FFA000000000
1DFE40006FFE1000000000
9FFFFCADFFF40000000000
9FFFFFFFFE400000000000
1AFFFFFFA2000000000000
0037875100000000000000
ENDCHAR
STARTCHAR Thorn
ENCODING 222
SWIDTH 569 0
DWIDTH 21 0
BBX 22 34 -2 -7
BITMAP
0000000000110000000000
000000005CF70000000000
00000003FFF30000000000
00000007FFE00000000000
0000000BFFA00000000000
0000000EFF600000000000
0000003FFF201221000000
0000007FFEBDFFFFE92000
000000BFFFFDAACFFFE400
00003CFFFA400002CFFE20
0007FFFFF10000001DFFA0
001FFFFFC000000006FFF1
000DFEFF8000000002FFF4
00056DFF4000000001FFF6
00002FFF0000000001FFF6
00005FFB0000000003FFF4
00009FF70000000006FFF1
0000CFF4000000000AFFB0
0001FFF1000000001FFF50
0005FFC0000000009FFD00
0008FF9000000005FFF400
000CFF500000003EFF8000
001FFF20000004EFF90000
004FFE0000007FFF900000
007FFC00005DFFE5000000
00BFF9359EFFE810000000
00EFFFFFFFC71000000000
03FFFA8641000000000000
06FFF10000000000000000
0AFFE00000000000000000
0DFFC00000000000000000
2FFFA00000000000000000
5FFF600000000000000000
2752000000000000000000
ENDCHAR
STARTCHAR germandbls
ENCODING 223
SWIDTH 495 0
DWIDTH 18 0
BBX 21 41 -5 -17
BITMAP
00000000000005ABA40000
000000000002DFFFFF7000
00000000002EFFC68FF300
0000000000BFF9001FF800
0000000005FFB0004FF900
000000000CFF3000AFF600
000000003FFC0001FFE100
000000008FF60008FF7000
00000000CFF1001EFD0000
00000002FFB0006FF40000
00000006FF6000CFA00000
0000000BFF1000FF400000
0000000EFB0000DF800000
0000004FF600007FF20000
0000008FF100001EFC0000
000000CFB0000007FF7000
000002FF70000001EFF300
026206FF200000006FFC00
03DFCCFC000000000CFF70
0005DFF80000013005FFE0
00003FFF60003ED000DFE0
00007FEEF700DFF400AF70
0000BFA4FF50CFFC25FC00
0001FF606FE24FFFFFC100
0004FF200CFA05EFE80000
0008FD0005FF2012100000
000CFA0000FF7000000000
001FF60000CFA000000000
005FF30000BFC000000000
009FE00000CFB000000000
00CFB00000EF8000000000
01FF800005FF5000000000
05FF40000BFE1000000000
08FF10004FF90000000000
0CFC0001DFE20000000000
0FF9000AFF700000000000
3FF801BFFC000000000000
4FFD9EFFE2000000000000
3FFFFFFE30000000000000
1EFFFFC200000000000000
04CDB50000000000000000
ENDCHAR
STARTCHAR agrave
ENCODING 224
SWIDTH 435 0
DWIDTH 16 0
BBX 20 23 -1 -1
BITMAP
00000067100000000000
000004FFD40000000000
000003CFFF7000000000
00000005DFF700000000
0000000006DC00000000
00000000000100000000
00000000000000000000
00000006BB5000000000
000002CFFFF400000000
00003EFC9FF400000000
0003EFB05FF840000000
001DFE1035FF60000000
009FF50005FF30000000
02FFC00008FE00000056
09FF60000BFC000003F5
0EFF10000FF800001DA0
3FFC00004FF50000BD10
6FFB0001CFF20009F300
8FFA001BFFE0007F6000
7FFE46DF7FF007F90000
4FFFFFF80EFBAFB00000
0BFFFD5009FFFA100000
01674000005730000000
ENDCHAR
STARTCHAR aacute
ENCODING 225
SWIDTH 435 0
DWIDTH 16 0
BBX 20 23 -1 -1
BITMAP
00000000001710000000
0000000004EF60000000
000000008FFF60000000
0000003CFFD600000000
0000009FD60000000000
00000012000000000000
00000000000000000000
00000006BB5000000000
000002CFFFF400000000
00003EFC9FF400000000
0003EFB05FF840000000
001DFE1035FF60000000
009FF50005FF30000000
02FFC00008FE00000056
09FF60000BFC000003F5
0EFF10000FF800001DA0
3FFC00004FF50000BD10
6FFB0001CFF20009F300
8FFA001BFFE0007F6000
7FFE46DF7FF007F90000
4FFFFFF80EFBAFB00000
0BFFFD5009FFFA100000
01674000005730000000
ENDCHAR
STARTCHAR acircumflex
ENCODING 226
SWIDTH 435 0
DWIDTH 16 0
BBX 20 22 -1 -1
BITMAP
000000003AA600000000
00000006FFFF20000000
0000009FE5EFA0000000
00002CFC207FF5000000
00004550000476000000
00000000000000000000
00000006BB5000000000
000002CFFFF400000000
00003EFC9FF400000000
0003EFB05FF840000000
001DFE1035FF60000000
009FF50005FF30000000
02FFC00008FE00000056
09FF60000BFC000003F5
0EFF10000FF800001DA0
3FFC00004FF50000BD10
6FFB0001CFF20009F300
8FFA001BFFE0007F6000
7FFE46DF7FF007F90000
4FFFFFF80EFBAFB00000
0BFFFD5009FFFA100000
01674000005730000000
ENDCHAR
STARTCHAR atilde
ENCODING 227
SWIDTH 435 0
DWIDTH 16 0
BBX 20 21 -1 -1
BITMAP
0000169A950006800000
0001EFFFFFECDFA00000
0002FE757CFFFC200000
00003100001320000000
00000000000000000000
00000006BB5000000000
000002CFFFF400000000
00003EFC9FF400000000
0003EFB05FF840000000
001DFE1035FF60000000
009FF50005FF30000000
02FFC00008FE00000056
09FF60000BFC000003F5
0EFF10000FF800001DA0
3FFC00004FF50000BD10
6FFB0001CFF20009F300
8FFA001BFFE0007F6000
7FFE46DF7FF007F90000
4FFFFFF80EFBAFB00000
0BFFFD5009FFFA100000
01674000005730000000
ENDCHAR
STARTCHAR adieresis
ENCODING 228
SWIDTH 435 0
DWIDTH 16 0
BBX 20 21 -1 -1
BITMAP
00000049810168400000
000005FFF40BFFD00000
000008FF900EFE500000
00000131000120000000
00000000000000000000
00000006BB5000000000
000002CFFFF400000000
00003EFC9FF400000000
0003EFB05FF840000000
001DFE1035FF60000000
009FF50005FF30000000
02FFC00008FE00000056
09FF60000BFC000003F5
0EFF10000FF800001DA0
3FFC00004FF50000BD10
6FFB0001CFF20009F300
8FFA001BFFE0007F6000
7FFE46DF7FF007F90000
4FFFFFF80EFBAFB00000
0BFFFD5009FFFA100000
01674000005730000000
ENDCHAR
STARTCHAR aring
ENCODING 229
SWIDTH 435 0
DWIDTH 16 0
BBX 20 22 -1 -1
BITMAP
00000000020000000000
00000005EFD200000000
0000002F84F700000000
0000005F65F400000000
0000001CFF9000000000
00000000320000000000
00000006BB5000000000
000002CFFFF400000000
00003EFC9FF400000000
0003EFB05FF840000000
001DFE1035FF60000000
009FF50005FF30000000
02FFC00008FE00000056
09FF60000BFC000003F5
0EFF10000FF800001DA0
3FFC00004FF50000BD10
6FFB0001CFF20009F300
8FFA001BFFE0007F6000
7FFE46DF7FF007F90000
4FFFFFF80EFBAFB00000
0BFFFD5009FFFA100000
01674000005730000000
ENDCHAR
STARTCHAR ae
ENCODING 230
SWIDTH 594 0
DWIDTH 21 0
BBX 26 16 -1 -1
BITMAP
00000006BB600017AA40000000
000002CFFFF406EFFFF2000000
00003EFC9FF49FE6AFF4000000
0003EFB05FFBFE206FF2000000
001DFE1038FFF600BFB0000000
009FF50009FFD006FE20000000
02FFC0000CFF706FE400000061
09FF60000FFF49FD30000008E1
0EFF10002FFFDFA10000006F50
3FFC00004FFFE600000006F800
6FFB0000BFFE200000007FA000
8FFA001AFFFE00000009FA0000
7FFE55CF9CFF700003CF900000
4FFFFFFB05FFFA66BFE6000000
0BFFFE70007FFFFFFA20000000
016751000004ACB83000000000
ENDCHAR
STARTCHAR ccedilla
ENCODING 231
SWIDTH 363 0
DWIDTH 13 0
BBX 17 24 -1 -9
BITMAP
0000018BC910000000
00005EFFFFC0000000
0005FFE51FF2000000
003FFE21AFF2000000
00CFF306FFD0000000
05FF9005FF40000000
0AFF200063000003B0
1FFC00000000001D90
3FF80000000000BD10
5FF7000000000AF300
4FF600000000AF5000
2FF90000001AF60000
0DFE200003CF600000
06FFE8449FE5000000
00AFFFFFFB20000000
0005EFEA5000000000
0003FE100000000000
0009FB530000000000
000CFFFF9000000000
000013CFF000000000
000000AFC000000000
00003AFD2000000000
002DFC610000000000
000310000000000000
ENDCHAR
STARTCHAR egrave
ENCODING 232
SWIDTH 372 0
DWIDTH 13 0
BBX 18 23 -1 -1
BITMAP
000001850000000000
00000AFFB100000000
000006EFFD30000000
00000018EFE3000000
0000000019F6000000
000000000010000000
000000000000000000
00000017AA40000000
000006EFFFF2000000
00008FE6AFF5000000
0007FE305FF3000000
003FF600AFB0000000
00CFD006FE20000000
05FF706FE400000051
0BFF49FD30000007E1
0EFFDFB10000006F50
2FFFE600000006F800
2FFE200000006FA000
1FFF10000008FB0000
0CFF800002CF900000
04FFFA66AFE6000000
007FFFFFFA20000000
0004ACB83000000000
ENDCHAR
STARTCHAR eacute
ENCODING 233
SWIDTH 372 0
DWIDTH 13 0
BBX 18 23 -1 -1
BITMAP
000000000045000000
0000000008FF100000
00000002CFFE100000
0000006EFFB3000000
000000EFB400000000
000000110000000000
000000000000000000
00000017AA40000000
000006EFFFF2000000
00008FE6AFF5000000
0007FE305FF3000000
003FF600AFB0000000
00CFD006FE20000000
05FF706FE400000051
0BFF49FD30000007E1
0EFFDFB10000006F50
2FFFE600000006F800
2FFE200000006FA000
1FFF10000008FB0000
0CFF800002CF900000
04FFFA66AFE6000000
007FFFFFFA20000000
0004ACB83000000000
ENDCHAR
STARTCHAR ecircumflex
ENCODING 234
SWIDTH 372 0
DWIDTH 13 0
BBX 18 22 -1 -1
BITMAP
000000006AA3000000
0000001AFFFB000000
000002CFB7FF400000
00004EF900CFD10000
000155300016740000
000000000000000000
00000017AA40000000
000006EFFFF2000000
00008FE6AFF5000000
0007FE305FF3000000
003FF600AFB0000000
00CFD006FE20000000
05FF706FE400000051
0BFF49FD30000007E1
0EFFDFB10000006F50
2FFFE600000006F800
2FFE200000006FA000
1FFF10000008FB0000
0CFF800002CF900000
04FFFA66AFE6000000
007FFFFFFA20000000
0004ACB83000000000
ENDCHAR
STARTCHAR edieresis
ENCODING 235
SWIDTH 372 0
DWIDTH 13 0
BBX 18 21 -1 -1
BITMAP
000005981017830000
00006FFF30DFFC0000
00009FF801EFD40000
000013100012000000
000000000000000000
00000017AA40000000
000006EFFFF2000000
00008FE6AFF5000000
0007FE305FF3000000
003FF600AFB0000000
00CFD006FE20000000
05FF706FE400000051
0BFF49FD30000007E1
0EFFDFB10000006F50
2FFFE600000006F800
2FFE200000006FA000
1FFF10000008FB0000
0CFF800002CF900000
04FFFA66AFE6000000
007FFFFFFA20000000
0004ACB83000000000
ENDCHAR
STARTCHAR igrave
ENCODING 236
SWIDTH 274 0
DWIDTH 10 0
BBX 13 23 0 -1
BITMAP
06710000000000
4FFE4000000000
2CFFF700000000
005CFF80000000
00005DC0000000
00000010000000
00000000000000
00000000000000
0018CC00000000
008FFA00000000
00EFF500000000
04FFE100000000
08FFA000000000
0BFF5000000670
0EFF1000004F60
1FFB000002EB00
2FF700002DE100
4FF30002DE3000
4FF1003DF40000
3FF206EF500000
0DFEDFE5000000
03EFFD30000000
00155000000000
ENDCHAR
STARTCHAR iacute
ENCODING 237
SWIDTH 274 0
DWIDTH 10 0
BBX 13 23 0 -1
BITMAP
00000000270000
00000005EF5000
0000019FFF5000
00003DFFD50000
0000AFD6000000
00001200000000
00000000000000
00000000000000
0018CC00000000
008FFA00000000
00EFF500000000
04FFE100000000
08FFA000000000
0BFF5000000670
0EFF1000004F60
1FFB000002EB00
2FF700002DE100
4FF30002DE3000
4FF1003DF40000
3FF206EF500000
0DFEDFE5000000
03EFFD30000000
00155000000000
ENDCHAR
STARTCHAR icircumflex
ENCODING 238
SWIDTH 274 0
DWIDTH 10 0
BBX 13 22 0 -1
BITMAP
000029A7000000
0005EFFF300000
007FE6DFB00000
1AFD305FF70000
35510004771000
00000000000000
00000000000000
0018CC00000000
008FFA00000000
00EFF500000000
04FFE100000000
08FFA000000000
0BFF5000000670
0EFF1000004F60
1FFB000002EB00
2FF700002DE100
4FF30002DE3000
4FF1003DF40000
3FF206EF500000
0DFEDFE5000000
03EFFD30000000
00155000000000
ENDCHAR
STARTCHAR idieresis
ENCODING 239
SWIDTH 274 0
DWIDTH 10 0
BBX 13 21 0 -1
BITMAP
02894004870000
1DFFA06FFF4000
2FFC208FF90000
03200002100000
00000000000000
00000000000000
0018CC00000000
008FFA00000000
00EFF500000000
04FFE100000000
08FFA000000000
0BFF5000000670
0EFF1000004F60
1FFB000002EB00
2FF700002DE100
4FF30002DE3000
4FF1003DF40000
3FF206EF500000
0DFEDFE5000000
03EFFD30000000
00155000000000
ENDCHAR
STARTCHAR eth
ENCODING 240
SWIDTH 393 0
DWIDTH 14 0
BBX 19 25 -1 -1
BITMAP
00000000280000000000
000000004F6000000000
000000000EE100000000
0000000009F503570000
0000000029FEFFFF1000
0000019DFFFFFEC70000
000009FFFDFF50000000
00000CD830DF40000000
0000020000CF60000000
0000002300CF70000000
00006DFFE7CF70000000
0006FFFBDFFF70000000
002EFD202FFF60000260
00BFF6000CFF40004E70
03FFF6000AFF2019F800
09FFF9000AFF16EE5000
0DFDFE500CFEDFC20000
1FF7AFFEDFFFE7000000
2FF41AFFFFF810000000
2FF40024CFF100000000
1FF50002FFA000000000
0EF9001CFF2000000000
09FF76DFF60000000000
01DFFFFE500000000000
0017AA71000000000000
ENDCHAR
STARTCHAR ntilde
ENCODING 241
SWIDTH 461 0
DWIDTH 17 0
BBX 21 21 -1 -1
BITMAP
0000049AA61002B0000000
0000AFFFFFFCCFF1000000
0000CFA56AEFFE50000000
0000120000023000000000
0000000000000000000000
0000000000000000000000
0000583019EE7000000000
0009FF74EFFFF300000000
000DFF6EEBEFF700000000
001FFEEC20AFF800000000
005FFFD100AFF600000000
008FFE2000CFF300000830
00BFF60000FFE000006E10
00EFC00004FFA00003E700
03FF900008FF60001DC000
07FF50000CFF2000BE2000
0BFF10001FFD000AF50000
0EFD00004FFA01BF700000
4FF900005FFD8DF7000000
8FE400001EFFFF60000000
6710000003BDA200000000
ENDCHAR
STARTCHAR ograve
ENCODING 242
SWIDTH 393 0
DWIDTH 14 0
BBX 19 23 -1 -1
BITMAP
00000185000000000000
00000AFFB10000000000
000006EFFD3000000000
00000018EFE300000000
0000000019F600000000
00000000001000000000
00000000000000000000
00000023000000000000
00006DFFE70000000000
0006FFFBDF8000000000
002EFD202FF300000260
00BFF6000CF900004E70
03FFF6000AFC0018F800
09FFF9000AFC06EE5000
0DFDFE500CFEDFB20000
1FF7AFFEDFFFE6000000
2FF41AFFFFF810000000
2FF40024CFF100000000
1FF50002FFA000000000
0EF9001CFE2000000000
09FF76DFF60000000000
01DFFFFE500000000000
0017AA71000000000000
ENDCHAR
STARTCHAR oacute
ENCODING 243
SWIDTH 393 0
DWIDTH 14 0
BBX 19 23 -1 -1
BITMAP
00000000004500000000
0000000008FF10000000
00000002CFFE10000000
0000006EFFB300000000
000000EFB40000000000
00000011000000000000
00000000000000000000
00000023000000000000
00006DFFE70000000000
0006FFFBDF8000000000
002EFD202FF300000260
00BFF6000CF900004E70
03FFF6000AFC0018F800
09FFF9000AFC06EE5000
0DFDFE500CFEDFB20000
1FF7AFFEDFFFE6000000
2FF41AFFFFF810000000
2FF40024CFF100000000
1FF50002FFA000000000
0EF9001CFE2000000000
09FF76DFF60000000000
01DFFFFE500000000000
0017AA71000000000000
ENDCHAR
STARTCHAR ocircumflex
ENCODING 244
SWIDTH 393 0
DWIDTH 14 0
BBX 19 22 -1 -1
BITMAP
00000007AA2000000000
000001BFFFA000000000
00003DFA8FF300000000
0005EF701DFC10000000
00155300016730000000
00000000000000000000
00000023000000000000
00006DFFE70000000000
0006FFFBDF8000000000
002EFD202FF300000260
00BFF6000CF900004E70
03FFF6000AFC0018F800
09FFF9000AFC06EE5000
0DFDFE500CFEDFB20000
1FF7AFFEDFFFE6000000
2FF41AFFFFF810000000
2FF40024CFF100000000
1FF50002FFA000000000
0EF9001CFE2000000000
09FF76DFF60000000000
01DFFFFE500000000000
0017AA71000000000000
ENDCHAR
STARTCHAR otilde
ENCODING 245
SWIDTH 393 0
DWIDTH 14 0
BBX 19 21 -1 -1
BITMAP
000169A9400077000000
002EFFFFFECDF9000000
003FD758CFFFC1000000
00030000013200000000
00000000000000000000
00000023000000000000
00006DFFE70000000000
0006FFFBDF8000000000
002EFD202FF300000260
00BFF6000CF900004E70
03FFF6000AFC0018F800
09FFF9000AFC06EE5000
0DFDFE500CFEDFB20000
1FF7AFFEDFFFE6000000
2FF41AFFFFF810000000
2FF40024CFF100000000
1FF50002FFA000000000
0EF9001CFE2000000000
09FF76DFF60000000000
01DFFFFE500000000000
0017AA71000000000000
ENDCHAR
STARTCHAR odieresis
ENCODING 246
SWIDTH 393 0
DWIDTH 14 0
BBX 19 21 -1 -1
BITMAP
00001895003871000000
0000CFFB04FFF5000000
0001FFD307FFA1000000
00002300002100000000
00000000000000000000
00000023000000000000
00006DFFE70000000000
0006FFFBDF8000000000
002EFD202FF300000260
00BFF6000CF900004E70
03FFF6000AFC0018F800
09FFF9000AFC06EE5000
0DFDFE500CFEDFB20000
1FF7AFFEDFFFE6000000
2FF41AFFFFF810000000
2FF40024CFF100000000
1FF50002FFA000000000
0EF9001CFE2000000000
09FF76DFF60000000000
01DFFFFE500000000000
0017AA71000000000000
ENDCHAR
STARTCHAR divide
ENCODING 247
SWIDTH 350 0
DWIDTH 13 0
BBX 14 12 -1 7
BITMAP
00000004760000
0000005FFF3000
0000006FF90000
00000001100000
00023455554320
08FFFFFFFFFFF5
1FFFFFFFFFFFF2
2C965432211110
00000000000000
000009CB100000
00007FFF100000
00005EC4000000
ENDCHAR
STARTCHAR oslash
ENCODING 248
SWIDTH 406 0
DWIDTH 15 0
BBX 21 19 -2 -3
BITMAP
00000000000027A2000000
000000013204FF90000000
000002BFFFBEFC00000000
00001EFFCBFFE200000000
00009FF700BFA000000710
0004FFC0006FF10001AD00
000CFFC0004FF3004DC200
003FFFF1003FF43BFA1000
007FFDF9105FFCFE600000
00AFD4FFFDEFFFA2000000
00BFB05EFFFFD200000000
00BFA00137FF7000000000
00AFB0000BFF2000000000
007FE1006FF80000000000
005FFB69FFC00000000000
01DFFFFFFA100000000000
0AFF99A830000000000000
5FFC000000000000000000
6850000000000000000000
ENDCHAR
STARTCHAR ugrave
ENCODING 249
SWIDTH 468 0
DWIDTH 17 0
BBX 20 22 0 -1
BITMAP
00000671000000000000
00004FFD400000000000
00003CFFF70000000000
0000005DFF7000000000
000000006DC000000000
00000000001000000000
00000000000000000000
00058300004970000000
00AFF30001EFD0000000
05FFC00007FFC0000000
0BFF70000CFFA0000000
1FFF20002FFF70000000
4FFC00006FFF3000005B
7FF700009FFD000002E5
AFF30000BFF800000CB0
DFE00000CFE100009E20
EFD00000BFA00007F500
FFD00003FFC0006F8000
DFF3004EFFF108FA0000
7FFFCCFF5FFDDFA00000
0AFFFFE409FFF7000000
00478610005620000000
ENDCHAR
STARTCHAR uacute
ENCODING 250
SWIDTH 468 0
DWIDTH 17 0
BBX 20 22 0 -1
BITMAP
00000000006300000000
000000001BFC00000000
00000004EFFB00000000
0000008FFF9100000000
000003FE920000000000
00000021000000000000
00000000000000000000
00058300004970000000
00AFF30001EFD0000000
05FFC00007FFC0000000
0BFF70000CFFA0000000
1FFF20002FFF70000000
4FFC00006FFF3000005B
7FF700009FFD000002E5
AFF30000BFF800000CB0
DFE00000CFE100009E20
EFD00000BFA00007F500
FFD00003FFC0006F8000
DFF3004EFFF108FA0000
7FFFCCFF5FFDDFA00000
0AFFFFE409FFF7000000
00478610005620000000
ENDCHAR
STARTCHAR ucircumflex
ENCODING 251
SWIDTH 468 0
DWIDTH 17 0
BBX 20 22 0 -1
BITMAP
000000018A9000000000
0000002DFFF700000000
000005EF8AFE10000000
00008FE502EFA0000000
00025520002772000000
00000000000000000000
00000000000000000000
00058300004970000000
00AFF30001EFD0000000
05FFC00007FFC0000000
0BFF70000CFFA0000000
1FFF20002FFF70000000
4FFC00006FFF3000005B
7FF700009FFD000002E5
AFF30000BFF800000CB0
DFE00000CFE100009E20
EFD00000BFA00007F500
FFD00003FFC0006F8000
DFF3004EFFF108FA0000
7FFFCCFF5FFDDFA00000
0AFFFFE409FFF7000000
00478610005620000000
ENDCHAR
STARTCHAR udieresis
ENCODING 252
SWIDTH 468 0
DWIDTH 17 0
BBX 20 21 0 -1
BITMAP
00000598001783000000
00007FFF20DFFB000000
0000AFF701FFD3000000
00001310001200000000
00000000000000000000
00000000000000000000
00058300004970000000
00AFF30001EFD0000000
05FFC00007FFC0000000
0BFF70000CFFA0000000
1FFF20002FFF70000000
4FFC00006FFF3000005B
7FF700009FFD000002E5
AFF30000BFF800000CB0
DFE00000CFE100009E20
EFD00000BFA00007F500
FFD00003FFC0006F8000
DFF3004EFFF108FA0000
7FFFCCFF5FFDDFA00000
0AFFFFE409FFF7000000
00478610005620000000
ENDCHAR
STARTCHAR yacute
ENCODING 253
SWIDTH 406 0
DWIDTH 15 0
BBX 14 37 -1 -16
BITMAP
00000000000171
00000000003DF8
0000000007FFF7
00000002BFFE70
00000008FD7100
00000000200000
00000000000000
004AA4000029C8
00AFFB00007FFF
00AFF900004FFE
00DFF500006FFA
02FFE100009FF5
07FFA00000EFF1
0BFF500006FFA0
1FFE00000DFF60
4FFA00007FFF10
6FF70002EFFC00
8FF5000CFFF800
7FF800AFEFF500
4FFFADFE8FF100
0CFFFFE4AFD000
018DEA20DFA000
00000002FF6000
00000006FF3000
0000000AFE0000
0000000EFB0000
0000003FF80000
0000007FF50000
000000BFF20000
000000EFE00000
000004FFB00000
000008FF800000
00000CFF500000
00001FFF200000
00004FFE000000
00000BFA000000
00000020000000
ENDCHAR
STARTCHAR thorn
ENCODING 254
SWIDTH 451 0
DWIDTH 16 0
BBX 23 41 -4 -16
BITMAP
00000000058A200000000000
000000005FFF600000000000
000000004FFF400000000000
000000005FFF100000000000
000000007FFC000000000000
00000000AFF8000000000000
00000000EFF3000000000000
00000002FFE0000000000000
00000005FF90000000000000
00000009FF50000000000000
0000000DFF10000000000000
0000001FFB007DE700000000
0000005FF72DFFFF40000000
0000008FF5EFACFF80000000
000000CFEED200EFA0000000
000001FFFD1000CFA0000000
000004FFE30000DF80000160
000008FF600003FF60000A90
00000BFD000009FF10007E20
00000EF800002FFA0005F600
00003FF50000BFF2004FA000
00007FFCD707FF9005FC0000
0000BFFFFFDFFD119FC10000
0000EFFFFFFFFB9EFB100000
0003FF9FFFFFFFFF70000000
0007FF27EFA3686200000000
000BFE000000000000000000
000EFB000000000000000000
003FF7000000000000000000
007FF4000000000000000000
00BFF1000000000000000000
00EFD0000000000000000000
03FFA0000000000000000000
07FF70000000000000000000
0BFF40000000000000000000
0EFF20000000000000000000
4FFE00000000000000000000
8FFB00000000000000000000
BFF900000000000000000000
4EF400000000000000000000
012000000000000000000000
ENDCHAR
STARTCHAR ydieresis
ENCODING 255
SWIDTH 406 0
DWIDTH 15 0
BBX 14 36 -1 -16
BITMAP
00000598101783
00006FFF30DFFC
00009FF801EFD4
00001310001200
00000000000000
00000000000000
004AA4000029C8
00AFFB00007FFF
00AFF900004FFE
00DFF500006FFA
02FFE100009FF5
07FFA00000EFF1
0BFF500006FFA0
1FFE00000DFF60
4FFA00007FFF10
6FF70002EFFC00
8FF5000CFFF800
7FF800AFEFF500
4FFFADFE8FF100
0CFFFFE4AFD000
018DEA20DFA000
00000002FF6000
00000006FF3000
0000000AFE0000
0000000EFB0000
0000003FF80000
0000007FF50000
000000BFF20000
000000EFE00000
000004FFB00000
000008FF800000
00000CFF500000
00001FFF200000
00004FFE000000
00000BFA000000
00000020000000
ENDCHAR
STARTCHAR dotlessi
ENCODING 305
SWIDTH 274 0
DWIDTH 10 0
BBX 13 15 0 -1
BITMAP
0018CC00000000
008FFA00000000
00EFF500000000
04FFE100000000
08FFA000000000
0BFF5000000670
0EFF1000004F60
1FFB000002EB00
2FF700002DE100
4FF30002DE3000
4FF1003DF40000
3FF206EF500000
0DFEDFE5000000
03EFFD30000000
00155000000000
ENDCHAR
STARTCHAR Lslash
ENCODING 321
SWIDTH 492 0
DWIDTH 18 0
BBX 24 35 -4 -8
BITMAP
000000000000000000156400
000000000000000008FFFF80
0000000000000000BFFFFFE0
0000000000000008FFF9DFF2
000000000000002FFF50AFF2
00000000000000AFFA00CFE0
00000000000001FFF402FF90
00000000000006FFE00BFF20
0000000000000AFFA09FF900
0000000000000DFF79FFC100
0000000000002FFFEFFD2000
0000000000005FFFFFD20000
00000D853469DFFFF9100000
00000AFFFFFFFFFC40000000
0000007CFFFEFFF300000000
000000000003FFE000000000
000000000006FFB000000000
00000000000AFF7245000000
00000000014DFFFFFF200000
00000017BFFFFFFFFB000000
000000BFFFFFFC7410000000
000000FFD8DFF40000000000
0000009301FFE00000000000
0000000006FF800000000000
000000000CFF200000000000
000000004FFA000000000000
00000100AFF3000000000000
007CFFFCFF90000000000000
0CFFFFFFFF40000000000000
6FFE87EFFFF9100000045000
8FF54AFECFFFE83025BF5000
5FFFFFC307FFFFFFFFFF1000
06BCA500002AFFFFFFF80000
00000000000028DFFE700000
000000000000000110000000
ENDCHAR
STARTCHAR lslash
ENCODING 322
SWIDTH 218 0
DWIDTH 8 0
BBX 13 26 -3 -1
BITMAP
00000001699000
0000000AFFF100
00000009FFE000
0000000BFFB000
0000000DFF7000
0000001FFF3000
0000004FFE0000
0000007FFB0000
000000BFF70000
000000EFF30110
000003FFFCEFD0
0159DFFFFFFFA0
0CFFFFFFDA7400
3FFFBFFF300000
3B512FFE000000
00006FFA000000
0000AFF6000000
0000DFF2000000
0002FFD0000000
0005FF90000000
0009FF50000000
000DFF10000000
001FFD00000000
005FF900000000
006FF500000000
00089100000000
ENDCHAR
STARTCHAR OE
ENCODING 338
SWIDTH 918 0
DWIDTH 33 0
BBX 34 34 0 -7
BITMAP
00000000018CB431000000000147763000
000000003DFFFFFF50000004BFFFFFFA10
00000004EFFFFBFFE10002BFFE9535EFB0
0000002EFFDD308FF7005EFFA200006FF5
000001DFF953002FFC05FFF90000003FF9
000008FFC000000EFF4FFFB00000004FF9
00003FFF3000000CFFEFFE100000009FF7
0000BFFA0000000AFFFFF900000001EFF3
0003FFF200000009FFFFF30000000AFFC0
000AFFA000000009FFFFF00000009FFF60
002FFF4000000008FFFFE0000007FFFB00
007FFD0000000008FFFFE0000000276000
00CFF80000000009FFFFF1000000000000
02FFF30000000009FFFFF6000000000000
06FFE0000000000BFFFFFD100000000000
0AFFB0000000000DFF8DFFA00000000000
0DFF80000000000FFF42BFFEEEB0000000
1FFF50000000002FFF49EFFFFFD0000000
3FFF30000000005FFFFFE836BB30000000
5FFF10000000008FFFFB10000000000000
7FFE0000000000BFFFB000000000000000
9FFD0000000001FFFE1000000000000000
9FFC0000000005FFF80000000000000000
AFFB000000000AFFF20000000000013000
9FFB000000001FFFE00000000000099000
9FFB000000008FFFE000000000002F5000
7FFC00000001EFFFF20000000000BE0000
5FFE00000008FFFFF50000000007F70000
1FFF1000002FFFFFFB000000006FD10000
0BFF500001DFF7EFFF80000007FF400000
05FFB0001BFF906FFFFB4225CFF6000000
00AFF936DFF90007FFFFFFFFFE50000000
001BFFFFFF7000004CFFFFFFB200000000
00006BDB82000000002687620000000000
ENDCHAR
STARTCHAR oe
ENCODING 339
SWIDTH 583 0
DWIDTH 21 0
BBX 26 16 -1 -1
BITMAP
0000002300000017AA50000000
00006DFFE70006EFFFF3000000
0006FFFBDF908FE6AFF5000000
002EFD202FFAFE305FF3000000
00BFF6000CFFF700AFD0000000
03FFF8000AFFD007FF40000000
09FFFE200AFF907FF700000051
0DFDFFD40BFF6AFF70000007E1
1FF77FFFEFFFFFD40000005F60
2FF405DFFFFFE710000005F900
2FF40002CFFD000000005FB000
1FF50002FFFE00000007FB0000
0EF9001CFFFF700002BFA00000
09FF76DFF8FFFA67AFF7000000
01DFFFFE407FFFFFFB20000000
0017A9610003ACB83000000000
ENDCHAR
STARTCHAR Scaron
ENCODING 352
SWIDTH 474 0
DWIDTH 17 0
BBX 23 40 -2 -7
BITMAP
000000000000288300036620
00000000000009FF306FF700
00000000000000DFB9FE4000
000000000000006FFFC20000
000000000000000897100000
000000000000000000000000
0000000000168AA961000000
0000000018EFFFFFFE300000
00000002DFFFA525FFE10000
0000002EFFD300009FF70000
000001DFFB1000005FFA0000
000007FFD10000004FFC0000
00000EFF400000007FFB0000
00003FFE00000000AFF90000
00006FFE00000001FFF50000
00005FFF10000007FFE00000
00003FFF5000000EEA300000
00000EFFD000000000000000
000008FFF700000000000000
000001EFFF50000000000000
0000005FFFF5000000000000
00000009FFFE300000000000
00000000BFFFD10000000000
000000001DFFF80000000000
0000000002EFFE1000000000
00000000007FFF6000000000
00000000000EFF9000000000
000000000008FFC000000000
000000000003FFD000000000
000000000000FFC000000000
017BA0000000EFA000000000
2DFF60000000FF7000000000
8FFF20000003FF4000000000
AFFF20000008FE0000000000
8FFF4000001EF90000000000
4FFF900000AFE20000000000
0DFFF40008FF700000000000
05FFFFA9DFF9000000000000
008FFFFFFF70000000000000
00049CCB7200000000000000
ENDCHAR
STARTCHAR scaron
ENCODING 353
SWIDTH 351 0
DWIDTH 13 0
BBX 13 25 0 -2
BITMAP
00068600005650
0002EFA02CFC20
00007FF6EFA100
00000DFFF60000
00000399300000
00000000000000
00000000000000
000007DA100000
0000AFFF500000
0008FFFC000000
000FFFF2000000
000CFFF2000000
001DEFF5000000
009F3EFB000000
04F709FF200000
1DB003FFA00000
8D1000DFF20000
2100007FF80000
0013001FFD0000
04EC000CFD0000
0EFF300BF60000
0DFFB26FB00000
05FFFFFB100000
006EFE70000000
00012100000000
ENDCHAR
STARTCHAR Ydieresis
ENCODING 376
SWIDTH 532 0
DWIDTH 19 0
BBX 21 39 0 -7
BITMAP
0000000000498101684000
0000000005FFF40BFFD000
0000000008FF900EFE5000
0000000001310001200000
0000000000000000000000
0000000230000000004510
000008EFF20000003EFF70
00002FFFB00000008FFF20
00006FFF50000000CFFC00
0000BFFE00000000FFF800
0000EFF900000004FFF300
0004FFF400000007FFE000
0008FFE00000000AFFA000
000CFF900000000DFF5000
001FFF400000002FFF1000
005FFF100000005FFC0000
008FFB000000009FF90000
00BFF700000000DFF50000
00EFF300000003FFF10000
03FFE000000009FFC00000
05FFB00000001EFF900000
08FF800000007FFF500000
0AFF50000001EFFF100000
0CFF40000009FFFC000000
0CFF4000005FECF9000000
0BFF800005FF5EF5000000
08FFF7349FF73FF1000000
02EFFFFFFF608FD0000000
004DFFFFA200DF90000000
000034310003FF40000000
00000000000AFE00000000
00000000002FF900000000
0000000000AFF200000000
02C6000006FFA000000000
1DFE40006FFE1000000000
9FFFFCADFFF40000000000
9FFFFFFFFE400000000000
1AFFFFFFA2000000000000
0037875100000000000000
ENDCHAR
STARTCHAR Zcaron
ENCODING 381
SWIDTH 455 0
DWIDTH 16 0
BBX 22 40 -3 -7
BITMAP
0000000000005871000566
0000000000002EFB01BFD3
00000000000005FF7DFB10
00000000000000CFFF8000
0000000000000039940000
0000000000000000000000
0000000000012322110000
0000001ACEFFFFFFFFFD60
000000AFFFFFFFFFFFFFA0
000000EFFFFECBA98CFFC0
000002FC7410000009FFB0
00000020000000000DFF80
00000000000000006FFF20
0000000000000001EFFA00
000000000000000AFFE200
000000000000005FFF7000
00000000000002EFFC0000
0000000000000CFFE20000
0000000000008FFF500000
000000000005FFF7000000
00000000002EFFA0000000
0000000001DFFC10000000
000000000BFFE200000000
000000008FFF4000000000
00000005FFF60000000000
0000003EFF900000000000
000001DFFB000000000000
00000BFFD1000000000000
00007FFE30000000000000
0002FFF500000000000000
000CFF9000000000000000
006FFC0000000000000000
01EFF30000000000000000
08FF800000000000000000
1FFE100000000000000000
8FF737ADEFFFEDB8200000
CFFEFFFFFFFFFFFF400000
AFFFFFFFFFFFFFF9000000
6FFDA876789BEFA0000000
0510000000000100000000
ENDCHAR
STARTCHAR zcaron
ENCODING 382
SWIDTH 349 0
DWIDTH 13 0
BBX 20 38 -5 -16
BITMAP
00000000397200046610
000000000BFE108FE500
0000000002FF9BFD3000
00000000008FFFB10000
00000000001896000000
00000000000000000000
00000000000000000000
00000000023443100000
0000019DFFFFFFF40000
00000AFFFFFFFFF30000
00000DFD9531AFD00000
000007400001FF600000
000000000009FE000000
00000000003FF6000000
0000000000CFC0000000
0000000009FF3000002A
000000006FF7000001C9
00000006FFB461001CC1
0000007FFFFFFA02CD10
000002FFFD67FD5EC200
000001EFB102FFFB1000
00000037003BFF700000
000000004BFFFB000000
0000002BFF7DF8000000
000005EFC23FF4000000
00007FF8009FE0000000
0007FF6001EFA0000000
004FF70007FF50000000
01EFA0000DFD00000000
09FE10006FF700000000
1FF80000DFF200000000
6FF20006FF9000000000
9FE0001EFF2000000000
9FE000BFF80000000000
9FF419FFC00000000000
6FFFFFFE200000000000
0CFFFFD2000000000000
016A9600000000000000
ENDCHAR
STARTCHAR circumflex
ENCODING 710
SWIDTH 567 0
DWIDTH 20 0
BBX 11 5 7 20
BITMAP
000018A90000
0003DFFF6000
005EF7BFD100
08FE403FF900
255200037710
ENDCHAR
STARTCHAR caron
ENCODING 711
SWIDTH 567 0
DWIDTH 20 0
BBX 11 5 7 20
BITMAP
497200046610
0CFD109FE500
03FF9BFC2000
009FFFA10000
001996000000
ENDCHAR
STARTCHAR breve
ENCODING 728
SWIDTH 567 0
DWIDTH 20 0
BBX 10 5 7 19
BITMAP
3FE00003ED
4FF2001CF9
1FFD78DFC1
05EFFFFA10
0027983000
ENDCHAR
STARTCHAR dotaccent
ENCODING 729
SWIDTH 567 0
DWIDTH 20 0
BBX 5 4 10 20
BITMAP
049810
4FFF40
8FF900
031000
ENDCHAR
STARTCHAR ring
ENCODING 730
SWIDTH 567 0
DWIDTH 20 0
BBX 5 6 10 19
BITMAP
002000
3DFE50
CC2DB0
FA2E90
9FFC10
022000
ENDCHAR
STARTCHAR ogonek
ENCODING 731
SWIDTH 567 0
DWIDTH 20 0
BBX 10 7 7 -5
BITMAP
0048100000
03FF400000
0CF9000013
1FFB0017E8
0EFFFEFE60
04DFEC7100
0001000000
ENDCHAR
STARTCHAR tilde
ENCODING 732
SWIDTH 567 0
DWIDTH 20 0
BBX 12 4 6 20
BITMAP
0169A951005A
1DFFFFFFCDFC
1EE857BFFFD3
021000003200
ENDCHAR
STARTCHAR hungarumlaut
ENCODING 733
SWIDTH 567 0
DWIDTH 20 0
BBX 13 6 6 19
BITMAP
00001710002700
0004DF7006EF40
008FFF71AFFF30
2CFFE64DFFC400
9FD710CFC50000
02000012000000
ENDCHAR
STARTCHAR endash
ENCODING 8211
SWIDTH 353 0
DWIDTH 13 0
BBX 14 4 -1 9
BITMAP
02567888888750
1EFFFFFFFFFFF2
6FFFFEDDDCCD90
56320000000000
ENDCHAR
STARTCHAR emdash
ENCODING 8212
SWIDTH 508 0
DWIDTH 18 0
BBX 19 4 -1 9
BITMAP
046789AAAAAAAA986410
4FFFFFFFFFFFFFFFFFB0
7FFFFFFFEEEEFFFFFF80
15432100000001134400
ENDCHAR
STARTCHAR quoteleft
ENCODING 8216
SWIDTH 155 0
DWIDTH 6 0
BBX 5 9 1 16
BITMAP
000240
003E60
01EB00
09F400
1FFA30
5FFFC0
7FFFA0
4FFE20
045100
ENDCHAR
STARTCHAR quoteright
ENCODING 8217
SWIDTH 154 0
DWIDTH 6 0
BBX 5 9 2 16
BITMAP
004300
2DFF40
9FFF70
BFFF60
3BFF20
04FA00
0AE200
5E4000
530000
ENDCHAR
STARTCHAR quotesinglbase
ENCODING 8218
SWIDTH 188 0
DWIDTH 7 0
BBX 5 9 -2 -5
BITMAP
016930
0BFFD0
3FFFE0
3FFFC0
04BF70
00CE10
05F500
1E6000
030000
ENDCHAR
STARTCHAR quotedblleft
ENCODING 8220
SWIDTH 289 0
DWIDTH 10 0
BBX 10 9 1 16
BITMAP
0002400033
003E6005E4
01EB003F90
09F400CF20
1FFA34FE92
5FFFC8FFF9
7FFFAAFFF8
4FFE27FFC1
0451005500
ENDCHAR
STARTCHAR quotedblright
ENCODING 8221
SWIDTH 288 0
DWIDTH 10 0
BBX 10 9 2 16
BITMAP
0276003740
3EFF55FFF2
AFFF7DFFF4
BFFF5EFFF2
29FF13AFC0
05F9007F60
0CD101DB00
7D3009C100
4100041000
ENDCHAR
STARTCHAR quotedblbase
ENCODING 8222
SWIDTH 323 0
DWIDTH 12 0
BBX 10 9 -2 -5
BITMAP
0169301782
0BFFD1DFFA
3FFFE6FFFC
3FFFC6FFF9
04BF705DF4
00CE101EC0
05F5008F30
1E6003E400
0300012000
ENDCHAR
STARTCHAR bullet
ENCODING 8226
SWIDTH 180 0
DWIDTH 7 0
BBX 7 9 -1 6
BITMAP
00012000
007FFA00
05FFFF60
0DFFFF90
3FFFFF80
5FFFFF50
5FFFFD00
1FFFF500
05CB4000
ENDCHAR
STARTCHAR ellipsis
ENCODING 8230
SWIDTH 614 0
DWIDTH 22 0
BBX 21 4 -2 -1
BITMAP
0049A400038A600027A800
09FFFA005FFFD003EFFF10
1FFFF400CFFF7009FFFA00
08CA30006CB40004BB6000
ENDCHAR
STARTCHAR perthousand
ENCODING 8240
SWIDTH 851 0
DWIDTH 31 0
BBX 30 28 0 -1
BITMAP
000000010000000000046000000000
00003BFFA100000004EF7000000000
0004EFEDFC0000002EFB0000000000
001EFB10DF500000CFE10000000000
009FD1009F900007FF400000000000
01EF70008FA0003FF8000000000000
05FF10009F9000DFC0000000000000
07FC0000DF7008FE20000000000000
08FA0003FF304FF500000000000000
08FA000AFC01DF9000000000000000
06FD005FF509FD1000000000000000
02FFCAFF905FF30000000000000000
007FFFF801EF800000000000000000
000365100AFC000000000000000000
000000006FF3000000000000000000
00000002EF7006CEB3000005CEC400
0000000BFC00AFFEFE30008FFEFF40
0000006FF307FF508FB006FF607FC0
000002EF802FF7003FF11EF8002FF2
00000CFD008FE0002FF27FE1000FF3
00007FF400DF80003FF1CF90002FF2
0003FF9001FF40006FE0FF50005FF0
000CFE1002FF2000BFA1FF3000AFB0
008FF60001FF2002FF50FF3002EF60
03FFC00000FF500BFC00EF600BFD00
1DFF300000BFE8CFE300AFE8CFF400
9FF90000003EFFFE40002EFFFE4000
873000000002786100000178610000
ENDCHAR
STARTCHAR guilsinglleft
ENCODING 8249
SWIDTH 202 0
DWIDTH 7 0
BBX 9 15 -2 -1
BITMAP
0000004CA0
000004FE10
00003EF300
0002EF7000
002DFA0000
01DFD10000
0BFE300000
4FFA000000
0BFE100000
03FF700000
009FD00000
001EF50000
0006FB0000
0000CF2000
0000272000
ENDCHAR
STARTCHAR guilsinglright
ENCODING 8250
SWIDTH 202 0
DWIDTH 7 0
BBX 9 15 -3 -1
BITMAP
000CC00000
0009F70000
0002FE1000
0000BFA000
00005FF300
00000DFC00
000007FF60
000006FF90
00002EFC10
0001CFD100
000AFD2000
006FE20000
03FE300000
1DE4000000
3720000000
ENDCHAR
STARTCHAR fraction
ENCODING 8260
SWIDTH 600 0
DWIDTH 22 0
BBX 21 28 1 -1
BITMAP
0000000000000000000460
000000000000000005EF70
00000000000000002EFB00
0000000000000000CFD100
0000000000000008FF4000
000000000000003FF80000
00000000000001DFB00000
00000000000009FE200000
0000000000004FF5000000
000000000001DF90000000
00000000000AFD10000000
00000000005FF300000000
0000000001EF7000000000
000000000BFC0000000000
000000006FE20000000000
00000002EF600000000000
0000000BFB000000000000
0000007FF2000000000000
000002EF70000000000000
00000CFC00000000000000
00007FF300000000000000
0003FF9000000000000000
000CFE1000000000000000
008FF60000000000000000
04FFB00000000000000000
1DFF300000000000000000
9FF9000000000000000000
8730000000000000000000
ENDCHAR
STARTCHAR Euro
ENCODING 8364
SWIDTH 334 0
DWIDTH 12 0
BBX 16 22 -2 2
BITMAP
0000000000378400
000000002BFFFF90
00000003EFC32CF6
0000002EFC1006FB
000000CFF20003C2
000006FF80000000
00001EFE00000000
00006FF700000000
0034DFF654320000
04FFFFFFFFFF7000
07CDFF8667781000
000BFF3332100000
1CFFFFFFFFF30000
8FEFFC9999700000
213FF40000000000
003FF20000000000
001FF10000000000
000DF300000A8000
0007F700009F4000
0001DE202BF70000
00002DEDFE600000
0000016861000000
ENDCHAR
STARTCHAR minus
ENCODING 8722
SWIDTH 353 0
DWIDTH 13 0
BBX 14 4 -1 9
BITMAP
02567888888750
1EFFFFFFFFFFF2
6FFFFEDDDCCD90
56320000000000
ENDCHAR
STARTCHAR fi
ENCODING 64257
SWIDTH 549 0
DWIDTH 20 0
BBX 27 43 -4 -17
BITMAP
0000000000011000000000000000
0000000019EFB000000000000000
000000002FFFC000000010000000
000000000EFFC0000006F8000000
000000000DFFA000004FFC000000
000000000EFF7000007FF9000000
000000000EFF3000002DA1000000
000000001FFE0000000000000000
000000004FFA0000000000000000
000000008FF50000000000000000
00000000CFE10000000000000000
00000001FFA00000000000000000
00000004FF60000018CC00000000
00000008FF1000008FFA00000000
0000000CFB000000EFF500000000
0000002FF7000137FFE000000000
0000007FF57BEFFFFFA000000000
000001DFFFFD842BFF5000000760
00002EFFE940000EFF1000004F60
0000CFFF2000001FFA000003EB00
0001FFFC0000003FF600002EE200
0000DFF80000004FF30002DE3000
00006FFE5000004FF0003DF40000
00009FFFF700004FF206EF500000
0000DFAAFF50001EFEDFE4000000
0002FF50BFE20004EFFC20000000
0005FF102EFA0000155000000000
0009FD0008FF2000000000000000
000DF90002FF7000000000000000
002FF60000EFA000000000000000
006FF20000DFC000000000000000
00AFE00000DFB000000000000000
00DFB00001FF8000000000000000
02FF700006FF5000000000000000
05FF40000CFE0000000000000000
09FF00005FF80000000000000000
0CFC0001DFE20000000000000000
1FF9000BFF600000000000000000
4FF701BFFB000000000000000000
6FFC9EFFD2000000000000000000
5FFFFFFD20000000000000000000
1EFFFFB200000000000000000000
04CDB50000000000000000000000
ENDCHAR
STARTCHAR fl
ENCODING 64258
SWIDTH 516 0
DWIDTH 19 0
BBX 23 43 -4 -17
BITMAP
000000000001100000000000
0000000019EFB00000037A50
000000002FFFC000000FFFB0
000000000EFFC000000EFFA0
000000000DFFA000000FFF60
000000000EFF7000002FFF30
000000000EFF3000005FFE00
000000001FFE0000009FFA00
000000004FFA000000CFF600
000000008FF5000001FFF200
00000000CFE1000004FFD000
00000001FFA0000008FF9000
00000004FF6000000BFF6000
00000008FF1000000FFF2000
0000000CFB0000003FFD0000
0000002FF7000135AFF90000
0000007FF57BEFFFFFF50000
000001DFFFFD8410EFF10000
00002EFFE9400003FFC00000
0000CFFF20000007FF900000
0001FFFC0000000AFF500000
0000DFF80000000EFF100000
00006FFE5000002FFC000000
00009FFFF700006FF8000000
0000DFAAFF50009FF5000000
0002FF50BFE200BFF1000000
0005FF102EFA002970000000
0009FD0008FF200000000000
000DF90002FF700000000000
002FF60000EFA00000000000
006FF20000DFC00000000000
00AFE00000DFB00000000000
00DFB00001FF800000000000
02FF700006FF500000000000
05FF40000CFE000000000000
09FF00005FF8000000000000
0CFC0001DFE2000000000000
1FF9000BFF60000000000000
4FF701BFFB00000000000000
6FFC9EFFD200000000000000
5FFFFFFD2000000000000000
1EFFFFB20000000000000000
04CDB5000000000000000000
ENDCHAR
STARTCHAR .notdef
ENCODING -1
SWIDTH 280 0
DWIDTH 10 0
BBX 1 1 0 0
BITMAP
00
ENDCHAR
ENDFONT
